<svg width="529" height="536" viewBox="0 0 529 536" fill="none" xmlns="http://www.w3.org/2000/svg">
<path d="M146.943 32.8789C147.793 32.8811 148.644 32.8833 149.52 32.8856C150.961 32.8857 150.961 32.8857 152.432 32.8859C153.999 32.8936 153.999 32.8936 155.598 32.9015C156.662 32.9029 157.726 32.9043 158.822 32.9058C162.235 32.9114 165.649 32.924 169.062 32.9367C171.37 32.9417 173.678 32.9462 175.986 32.9503C181.658 32.9614 187.329 32.9787 193 32.9992C193 37.2892 193 41.5792 193 45.9992C197.29 45.6692 201.58 45.3392 206 44.9992C206 49.2892 206 53.5792 206 57.9992C212.93 58.3292 219.86 58.6592 227 58.9992C227 54.7092 227 50.4192 227 45.9992C255.05 45.9992 283.1 45.9992 312 45.9992C312 50.2892 312 54.5792 312 58.9992C316.95 58.9992 321.9 58.9992 327 58.9992C327 54.3792 327 49.7592 327 44.9992C330.96 44.9992 334.92 44.9992 339 44.9992C339 41.0392 339 37.0792 339 32.9992C350.22 32.9992 361.44 32.9992 373 32.9992C373 36.6292 373 40.2592 373 43.9992C376.96 43.9992 380.92 43.9992 385 43.9992C385 70.7292 385 97.4592 385 124.999C388.63 124.999 392.26 124.999 396 124.999C396 150.079 396 175.159 396 200.999C392.37 200.999 388.74 200.999 385 200.999C385 208.589 385 216.179 385 223.999C382.03 223.999 379.06 223.999 376 223.999C376 225.649 376 227.299 376 228.999C375.01 228.999 374.02 228.999 373 228.999C373.33 233.619 373.66 238.239 374 242.999C370.04 242.669 366.08 242.339 362 241.999C362 245.959 362 249.919 362 253.999C357.05 253.669 352.1 253.339 347 252.999C347.33 257.289 347.66 261.579 348 265.999C346.68 265.669 345.36 265.339 344 264.999C343.67 266.979 343.34 268.959 343 270.999C347.95 270.999 352.9 270.999 358 270.999C358 274.299 358 277.599 358 280.999C359.32 281.329 360.64 281.659 362 281.999C362 285.299 362 288.599 362 291.999C365.96 291.999 369.92 291.999 374 291.999C374 295.959 374 299.919 374 303.999C377.3 303.999 380.6 303.999 384 303.999C384.879 307.734 385.089 311.167 385 314.999C388.63 315.329 392.26 315.659 396 315.999C396.872 320.357 397.104 323.907 397.062 328.312C397.053 329.566 397.044 330.82 397.035 332.112C397.018 333.541 397.018 333.541 397 334.999C400.3 335.329 403.6 335.659 407 335.999C407 339.629 407 343.259 407 346.999C408.32 346.669 409.64 346.339 411 345.999C410.67 348.639 410.34 351.279 410 353.999C412.97 353.999 415.94 353.999 419 353.999C419.33 368.519 419.66 383.039 420 397.999C412.41 397.999 404.82 397.999 397 397.999C397 401.959 397 405.919 397 409.999C387.76 409.999 378.52 409.999 369 409.999C369 425.839 369 441.679 369 457.999C377.25 457.669 385.5 457.339 394 456.999C393.67 461.619 393.34 466.239 393 470.999C396.96 470.999 400.92 470.999 405 470.999C405 478.589 405 486.179 405 493.999C401.37 493.999 397.74 493.999 394 493.999C394.33 494.989 394.66 495.979 395 496.999C395.13 500.005 395.044 502.989 395 505.999C390.71 505.999 386.42 505.999 382 505.999C382 508.639 382 511.279 382 513.999C373.75 513.669 365.5 513.339 357 512.999C357.33 516.959 357.66 520.919 358 524.999C342.82 524.669 327.64 524.339 312 523.999C312.33 515.419 312.66 506.839 313 497.999C308.71 497.999 304.42 497.999 300 497.999C300.33 491.399 300.66 484.799 301 477.999C297.04 478.329 293.08 478.659 289 478.999C288.875 469.249 288.875 469.249 290 466.999C286.04 467.329 282.08 467.659 278 467.999C278.33 464.699 278.66 461.399 279 457.999C271.41 457.999 263.82 457.999 256 457.999C256.33 459.979 256.66 461.959 257 463.999C255.35 464.329 253.7 464.659 252 464.999C251.67 468.959 251.34 472.919 251 476.999C243.74 476.999 236.48 476.999 229 476.999C229 480.629 229 484.259 229 487.999C225.37 487.999 221.74 487.999 218 487.999C218 490.639 218 493.279 218 495.999C221.3 496.329 224.6 496.659 228 496.999C228 506.239 228 515.479 228 524.999C208.2 525.329 188.4 525.659 168 525.999C168 522.039 168 518.079 168 513.999C164.37 513.669 160.74 513.339 157 512.999C157 509.369 157 505.739 157 501.999C153.04 501.999 149.08 501.999 145 501.999C145 491.439 145 480.879 145 469.999C119.26 469.999 93.52 469.999 67 469.999C67.33 466.369 67.66 462.739 68 458.999C66.8566 459.011 65.7132 459.022 64.5352 459.034C63.0443 459.044 61.5534 459.053 60.0625 459.062C59.3078 459.07 58.553 459.078 57.7754 459.087C55.8501 459.096 53.9246 459.051 52 458.999C51 457.999 51 457.999 50.9023 456.152C50.9512 453.075 50.9512 453.075 51 449.999C47.04 449.669 43.08 449.339 39 448.999C39.33 445.369 39.66 441.739 40 437.999C38.68 437.999 37.36 437.999 36 437.999C36 427.109 36 416.219 36 404.999C36.99 404.999 37.98 404.999 39 404.999C39.33 401.699 39.66 398.399 40 394.999C43.63 394.999 47.26 394.999 51 394.999C51 391.369 51 387.739 51 383.999C60.24 383.999 69.48 383.999 79 383.999C79 374.429 79 364.859 79 354.999C82.63 354.999 86.26 354.999 90 354.999C90 348.729 90 342.459 90 335.999C93.63 335.999 97.26 335.999 101 335.999C101 329.069 101 322.139 101 314.999C104.63 314.999 108.26 314.999 112 314.999C112 311.369 112 307.739 112 303.999C115.63 303.999 119.26 303.999 123 303.999C122.67 300.039 122.34 296.079 122 291.999C125.63 291.999 129.26 291.999 133 291.999C133.124 290.37 133.248 288.74 133.375 287.062C133.586 284.284 133.586 284.284 134 281.999C137.467 280.266 141.239 281.516 145 281.999C145 278.369 145 274.739 145 270.999C148.63 270.999 152.26 270.999 156 270.999C156 267.369 156 263.739 156 259.999C159.96 259.999 163.92 259.999 168 259.999C168 250.759 168 241.519 168 231.999C164.37 231.999 160.74 231.999 157 231.999C157 228.699 157 225.399 157 221.999C152.71 222.329 148.42 222.659 144 222.999C144.33 215.739 144.66 208.479 145 200.999C140.71 200.999 136.42 200.999 132 200.999C132 178.229 132 155.459 132 131.999C136.29 131.999 140.58 131.999 145 131.999C145 124.079 145 116.159 145 107.999C140.71 107.999 136.42 107.999 132 107.999C132 87.5392 132 67.0792 132 45.9992C135.96 45.6692 139.92 45.3392 144 44.9992C143.979 43.2048 143.959 41.4104 143.938 39.5617C143.916 37.7075 143.928 35.852 144 33.9992C145 32.9992 145 32.9992 146.943 32.8789ZM147 457.999C147 460.309 147 462.619 147 464.999C150.3 464.999 153.6 464.999 157 464.999C157 462.689 157 460.379 157 457.999C153.7 457.999 150.4 457.999 147 457.999Z" fill="#6D7481"/>
<path d="M146.943 32.8789C147.793 32.8811 148.644 32.8833 149.52 32.8856C150.961 32.8857 150.961 32.8857 152.432 32.8859C153.999 32.8936 153.999 32.8936 155.598 32.9015C156.662 32.9029 157.726 32.9043 158.822 32.9058C162.235 32.9114 165.649 32.924 169.062 32.9367C171.37 32.9417 173.678 32.9462 175.986 32.9503C181.658 32.9614 187.329 32.9787 193 32.9992C193 37.2892 193 41.5792 193 45.9992C197.29 45.6692 201.58 45.3392 206 44.9992C206 49.2892 206 53.5792 206 57.9992C212.93 58.3292 219.86 58.6592 227 58.9992C227 54.7092 227 50.4192 227 45.9992C255.05 45.9992 283.1 45.9992 312 45.9992C312 50.2892 312 54.5792 312 58.9992C316.95 58.9992 321.9 58.9992 327 58.9992C327 54.3792 327 49.7592 327 44.9992C330.96 44.9992 334.92 44.9992 339 44.9992C339 41.0392 339 37.0792 339 32.9992C350.22 32.9992 361.44 32.9992 373 32.9992C373 36.6292 373 40.2592 373 43.9992C376.96 43.9992 380.92 43.9992 385 43.9992C385 70.7292 385 97.4592 385 124.999C388.63 124.999 392.26 124.999 396 124.999C396 150.079 396 175.159 396 200.999C392.37 200.999 388.74 200.999 385 200.999C385 208.589 385 216.179 385 223.999C382.03 223.999 379.06 223.999 376 223.999C376 225.649 376 227.299 376 228.999C375.01 228.999 374.02 228.999 373 228.999C373.33 233.619 373.66 238.239 374 242.999C370.04 242.669 366.08 242.339 362 241.999C362 245.959 362 249.919 362 253.999C357.05 253.669 352.1 253.339 347 252.999C347.33 257.289 347.66 261.579 348 265.999C346.68 265.669 345.36 265.339 344 264.999C343.67 266.979 343.34 268.959 343 270.999C347.95 270.999 352.9 270.999 358 270.999C358 274.299 358 277.599 358 280.999C359.32 281.329 360.64 281.659 362 281.999C362 285.299 362 288.599 362 291.999C365.96 291.999 369.92 291.999 374 291.999C374 295.959 374 299.919 374 303.999C377.3 303.999 380.6 303.999 384 303.999C384.879 307.734 385.089 311.167 385 314.999C388.63 315.329 392.26 315.659 396 315.999C396.872 320.357 397.104 323.907 397.062 328.312C397.053 329.566 397.044 330.82 397.035 332.112C397.018 333.541 397.018 333.541 397 334.999C400.3 335.329 403.6 335.659 407 335.999C407 339.629 407 343.259 407 346.999C408.32 346.669 409.64 346.339 411 345.999C410.67 348.639 410.34 351.279 410 353.999C412.97 353.999 415.94 353.999 419 353.999C419.33 368.519 419.66 383.039 420 397.999C412.41 397.999 404.82 397.999 397 397.999C397 401.959 397 405.919 397 409.999C387.76 409.999 378.52 409.999 369 409.999C369 425.839 369 441.679 369 457.999C377.25 457.669 385.5 457.339 394 456.999C393.67 461.619 393.34 466.239 393 470.999C396.96 470.999 400.92 470.999 405 470.999C405 478.589 405 486.179 405 493.999C401.37 493.999 397.74 493.999 394 493.999C394.33 494.989 394.66 495.979 395 496.999C395.13 500.005 395.044 502.989 395 505.999C390.71 505.999 386.42 505.999 382 505.999C382 508.639 382 511.279 382 513.999C373.75 513.669 365.5 513.339 357 512.999C357.33 516.959 357.66 520.919 358 524.999C342.82 524.669 327.64 524.339 312 523.999C312.33 515.419 312.66 506.839 313 497.999C308.71 497.999 304.42 497.999 300 497.999C300.33 491.399 300.66 484.799 301 477.999C297.04 478.329 293.08 478.659 289 478.999C288.875 469.249 288.875 469.249 290 466.999C286.04 467.329 282.08 467.659 278 467.999C278.33 464.699 278.66 461.399 279 457.999C271.41 457.999 263.82 457.999 256 457.999C256.33 459.979 256.66 461.959 257 463.999C255.35 464.329 253.7 464.659 252 464.999C251.67 468.959 251.34 472.919 251 476.999C243.74 476.999 236.48 476.999 229 476.999C229 480.629 229 484.259 229 487.999C225.37 487.999 221.74 487.999 218 487.999C218 490.639 218 493.279 218 495.999C221.3 496.329 224.6 496.659 228 496.999C228 506.239 228 515.479 228 524.999C208.2 525.329 188.4 525.659 168 525.999C168 522.039 168 518.079 168 513.999C164.37 513.669 160.74 513.339 157 512.999C157 509.369 157 505.739 157 501.999C153.04 501.999 149.08 501.999 145 501.999C145 491.439 145 480.879 145 469.999C119.26 469.999 93.52 469.999 67 469.999C67.33 466.369 67.66 462.739 68 458.999C66.8566 459.011 65.7132 459.022 64.5352 459.034C63.0443 459.044 61.5534 459.053 60.0625 459.062C59.3078 459.07 58.553 459.078 57.7754 459.087C55.8501 459.096 53.9246 459.051 52 458.999C51 457.999 51 457.999 50.9023 456.152C50.9512 453.075 50.9512 453.075 51 449.999C47.04 449.669 43.08 449.339 39 448.999C39.33 445.369 39.66 441.739 40 437.999C38.68 437.999 37.36 437.999 36 437.999C36 427.109 36 416.219 36 404.999C36.99 404.999 37.98 404.999 39 404.999C39.33 401.699 39.66 398.399 40 394.999C43.63 394.999 47.26 394.999 51 394.999C51 391.369 51 387.739 51 383.999C60.24 383.999 69.48 383.999 79 383.999C79 374.429 79 364.859 79 354.999C82.63 354.999 86.26 354.999 90 354.999C90 348.729 90 342.459 90 335.999C93.63 335.999 97.26 335.999 101 335.999C101 329.069 101 322.139 101 314.999C104.63 314.999 108.26 314.999 112 314.999C112 311.369 112 307.739 112 303.999C115.63 303.999 119.26 303.999 123 303.999C122.67 300.039 122.34 296.079 122 291.999C125.63 291.999 129.26 291.999 133 291.999C133.124 290.37 133.248 288.74 133.375 287.062C133.586 284.284 133.586 284.284 134 281.999C137.467 280.266 141.239 281.516 145 281.999C145 278.369 145 274.739 145 270.999C148.63 270.999 152.26 270.999 156 270.999C156 267.369 156 263.739 156 259.999C159.96 259.999 163.92 259.999 168 259.999C168 250.759 168 241.519 168 231.999C164.37 231.999 160.74 231.999 157 231.999C157 228.699 157 225.399 157 221.999C152.71 222.329 148.42 222.659 144 222.999C144.33 215.739 144.66 208.479 145 200.999C140.71 200.999 136.42 200.999 132 200.999C132 178.229 132 155.459 132 131.999C136.29 131.999 140.58 131.999 145 131.999C145 124.079 145 116.159 145 107.999C140.71 107.999 136.42 107.999 132 107.999C132 87.5392 132 67.0792 132 45.9992C135.96 45.6692 139.92 45.3392 144 44.9992C143.979 43.2048 143.959 41.4104 143.938 39.5617C143.916 37.7075 143.928 35.852 144 33.9992C145 32.9992 145 32.9992 146.943 32.8789ZM348 44.9992C348 49.2892 348 53.5792 348 57.9992C344.37 57.9992 340.74 57.9992 337 57.9992C337 62.2892 337 66.5792 337 70.9992C328.42 70.9992 319.84 70.9992 311 70.9992C311 67.0392 311 63.0792 311 58.9992C283.61 58.9992 256.22 58.9992 228 58.9992C228 63.2892 228 67.5792 228 71.9992C224.37 71.9992 220.74 71.9992 217 71.9992C217 75.2992 217 78.5992 217 81.9992C208.75 81.9992 200.5 81.9992 192 81.9992C192 78.3692 192 74.7392 192 70.9992C188.37 70.9992 184.74 70.9992 181 70.9992C181 67.0392 181 63.0792 181 58.9992C173.41 58.9992 165.82 58.9992 158 58.9992C158 70.5492 158 82.0992 158 93.9992C161.63 93.9992 165.26 93.9992 169 93.9992C169 103.239 169 112.479 169 121.999C165.37 121.999 161.74 121.999 158 121.999C158 125.629 158 129.259 158 132.999C153.71 132.999 149.42 132.999 145 132.999C145 155.109 145 177.219 145 199.999C149.29 199.999 153.58 199.999 158 199.999C158 206.929 158 213.859 158 220.999C161.63 220.999 165.26 220.999 169 220.999C169 224.299 169 227.599 169 230.999C172.96 230.999 176.92 230.999 181 230.999C181 234.629 181 238.259 181 241.999C192.55 241.999 204.1 241.999 216 241.999C216 245.299 216 248.599 216 251.999C206.76 251.999 197.52 251.999 188 251.999C188 254.969 188 257.939 188 260.999C181.4 260.999 174.8 260.999 168 260.999C168 264.629 168 268.259 168 271.999C164.37 271.999 160.74 271.999 157 271.999C157 275.299 157 278.599 157 281.999C153.37 281.999 149.74 281.999 146 281.999C146 285.629 146 289.259 146 292.999C142.37 292.999 138.74 292.999 135 292.999C135 296.959 135 300.919 135 304.999C131.37 304.999 127.74 304.999 124 304.999C124 308.299 124 311.599 124 314.999C120.04 314.999 116.08 314.999 112 314.999C112.33 322.259 112.66 329.519 113 336.999C109.37 336.999 105.74 336.999 102 336.999C102 340.959 102 344.919 102 348.999C105.3 348.999 108.6 348.999 112 348.999C112 350.979 112 352.959 112 354.999C115.96 354.999 119.92 354.999 124 354.999C124 358.299 124 361.599 124 364.999C129.61 364.999 135.22 364.999 141 364.999C141 368.629 141 372.259 141 375.999C144.96 375.999 148.92 375.999 153 375.999C153 372.039 153 368.079 153 363.999C156.63 363.999 160.26 363.999 164 363.999C164 357.729 164 351.459 164 344.999C167.63 344.999 171.26 344.999 175 344.999C175 339.059 175 333.119 175 326.999C178.63 326.999 182.26 326.999 186 326.999C186 323.369 186 319.739 186 315.999C189.96 315.999 193.92 315.999 198 315.999C198 319.629 198 323.259 198 326.999C194.37 326.999 190.74 326.999 187 326.999C187 333.269 187 339.539 187 345.999C183.37 345.999 179.74 345.999 176 345.999C176 351.939 176 357.879 176 363.999C172.37 363.999 168.74 363.999 165 363.999C165 367.959 165 371.919 165 375.999C162.36 375.999 159.72 375.999 157 375.999C157 390.519 157 405.039 157 419.999C153.37 419.999 149.74 419.999 146 419.999C146 412.739 146 405.479 146 397.999C144.35 397.999 142.7 397.999 141 397.999C141 401.629 141 405.259 141 408.999C127.8 408.999 114.6 408.999 101 408.999C101 405.369 101 401.739 101 397.999C93.6107 397.231 86.4284 396.903 79 396.999C79 400.299 79 403.599 79 406.999C75.37 406.999 71.74 406.999 68 406.999C68 420.199 68 433.399 68 446.999C71.3 446.999 74.6 446.999 78 446.999C78 450.629 78 454.259 78 457.999C100.44 457.999 122.88 457.999 146 457.999C146 454.039 146 450.079 146 445.999C149.63 445.999 153.26 445.999 157 445.999C157.33 441.709 157.66 437.419 158 432.999C161.96 432.999 165.92 432.999 170 432.999C170 429.369 170 425.739 170 421.999C173.63 421.999 177.26 421.999 181 421.999C181 436.189 181 450.379 181 464.999C184.96 464.999 188.92 464.999 193 464.999C193 468.629 193 472.259 193 475.999C204.55 475.999 216.1 475.999 228 475.999C228 472.699 228 469.399 228 465.999C229.174 466.017 229.174 466.017 230.371 466.034C231.383 466.043 232.395 466.052 233.438 466.062C234.952 466.079 234.952 466.079 236.496 466.097C238.94 466.285 238.94 466.285 240 464.999C240.071 463.647 240.084 462.291 240.062 460.937C240.032 458.988 240.032 458.988 240 456.999C243.3 456.999 246.6 456.999 250 456.999C250 453.369 250 449.739 250 445.999C251.162 446.004 252.325 446.01 253.522 446.015C283.279 446.243 283.279 446.243 313 444.999C313 441.039 313 437.079 313 432.999C320.59 432.999 328.18 432.999 336 432.999C336 429.369 336 425.739 336 421.999C339.96 421.999 343.92 421.999 348 421.999C348 418.369 348 414.739 348 410.999C350.97 410.999 353.94 410.999 357 410.999C357 386.579 357 362.159 357 336.999C354.03 336.999 351.06 336.999 348 336.999C348 333.369 348 329.739 348 325.999C344.7 325.999 341.4 325.999 338 325.999C338 315.109 338 304.219 338 292.999C334.7 292.999 331.4 292.999 328 292.999C328.017 290.739 328.017 290.739 328.035 288.433C328.045 286.434 328.054 284.435 328.062 282.437C328.071 281.446 328.079 280.455 328.088 279.435C328.105 274.174 327.923 269.182 327 263.999C323.04 263.999 319.08 263.999 315 263.999C315 260.369 315 256.739 315 252.999C322.59 252.999 330.18 252.999 338 252.999C338 249.369 338 245.739 338 241.999C341.96 241.999 345.92 241.999 350 241.999C350 238.699 350 235.399 350 231.999C353.63 231.999 357.26 231.999 361 231.999C361 228.699 361 225.399 361 221.999C364.63 221.999 368.26 221.999 372 221.999C372 215.069 372 208.139 372 200.999C368.37 200.999 364.74 200.999 361 200.999C361 198.029 361 195.059 361 191.999C357.7 191.999 354.4 191.999 351 191.999C351 198.269 351 204.539 351 210.999C347.7 210.999 344.4 210.999 341 210.999C341 214.299 341 217.599 341 220.999C335.06 220.999 329.12 220.999 323 220.999C323 217.699 323 214.399 323 210.999C319.37 210.999 315.74 210.999 312 210.999C312 204.399 312 197.799 312 190.999C324.54 190.999 337.08 190.999 350 190.999C350 188.029 350 185.059 350 181.999C345.38 181.999 340.76 181.999 336 181.999C336 168.469 336 154.939 336 140.999C339.63 140.999 343.26 140.999 347 140.999C347 137.699 347 134.399 347 130.999C351.95 130.999 356.9 130.999 362 130.999C362 134.299 362 137.599 362 140.999C365.63 140.999 369.26 140.999 373 140.999C373 144.629 373 148.259 373 151.999C376.63 151.999 380.26 151.999 384 151.999C384 143.749 384 135.499 384 126.999C380.37 126.999 376.74 126.999 373 126.999C373 121.059 373 115.119 373 108.999C369.04 108.999 365.08 108.999 361 108.999C361 103.719 361 98.4392 361 92.9992C362.794 93.0198 364.589 93.0404 366.438 93.0617C368.292 93.083 370.147 93.0714 372 92.9992C373.21 92.0095 373.21 92.0095 373.12 90.0946C373.118 89.2619 373.116 88.4291 373.114 87.5712C373.113 86.1598 373.113 86.1598 373.113 84.72C373.108 83.6971 373.103 82.6742 373.098 81.6203C373.096 80.5785 373.095 79.5367 373.093 78.4633C373.088 75.121 373.075 71.7789 373.062 68.4367C373.057 66.1769 373.053 63.9171 373.049 61.6574C373.039 56.1046 373.019 50.5519 373 44.9992C364.75 44.9992 356.5 44.9992 348 44.9992ZM147 457.999C147 460.309 147 462.619 147 464.999C150.3 464.999 153.6 464.999 157 464.999C157 462.689 157 460.379 157 457.999C153.7 457.999 150.4 457.999 147 457.999Z" fill="#23272F"/>
<path d="M348 45C356.25 45 364.5 45 373 45C373.023 51.6753 373.043 58.3504 373.055 65.0256C373.06 67.2984 373.067 69.5712 373.075 71.844C373.088 75.103 373.093 78.362 373.098 81.6211C373.103 82.644 373.108 83.6669 373.113 84.7208C373.113 85.6617 373.113 86.6026 373.114 87.572C373.116 88.4048 373.118 89.2375 373.12 90.0954C373 92 373 92 372 93C368.331 93.1431 364.673 93.0422 361 93C361 98.28 361 103.56 361 109C364.96 109 368.92 109 373 109C373 114.94 373 120.88 373 127C376.63 127 380.26 127 384 127C384 135.25 384 143.5 384 152C380.37 152 376.74 152 373 152C373 148.37 373 144.74 373 141C369.37 141 365.74 141 362 141C362 137.7 362 134.4 362 131C357.05 131 352.1 131 347 131C347 134.3 347 137.6 347 141C343.37 141 339.74 141 336 141C336 154.53 336 168.06 336 182C340.62 182 345.24 182 350 182C350 184.97 350 187.94 350 191C337.46 191 324.92 191 312 191C312 197.6 312 204.2 312 211C315.63 211 319.26 211 323 211C323 214.3 323 217.6 323 221C328.94 221 334.88 221 341 221C341 217.7 341 214.4 341 211C344.3 211 347.6 211 351 211C351 204.73 351 198.46 351 192C354.3 192 357.6 192 361 192C361 194.97 361 197.94 361 201C364.63 201 368.26 201 372 201C372 207.93 372 214.86 372 222C368.37 222 364.74 222 361 222C361 225.3 361 228.6 361 232C351.561 233.054 342.219 233.13 332.738 233.098C331.095 233.096 329.452 233.094 327.808 233.093C323.519 233.09 319.23 233.08 314.941 233.069C310.55 233.058 306.159 233.054 301.768 233.049C293.178 233.038 284.589 233.021 276 233C276 229.37 276 225.74 276 222C272.7 222 269.4 222 266 222C266 214.41 266 206.82 266 199C269.3 199 272.6 199 276 199C276 195.37 276 191.74 276 188C279.96 188 283.92 188 288 188C288 172.49 288 156.98 288 141C284.04 141 280.08 141 276 141C276 137.7 276 134.4 276 131C262.8 131 249.6 131 236 131C236 134.3 236 137.6 236 141C229.07 141 222.14 141 215 141C215 144.63 215 148.26 215 152C211.37 152 207.74 152 204 152C204 155.3 204 158.6 204 162C200.04 162 196.08 162 192 162C192 174.54 192 187.08 192 200C195.96 200 199.92 200 204 200C204 203.63 204 207.26 204 211C220.83 211 237.66 211 255 211C255 214.63 255 218.26 255 222C234.21 222 213.42 222 192 222C192 218.04 192 214.08 192 210C188.37 210 184.74 210 181 210C181 206.7 181 203.4 181 200C169.12 200 157.24 200 145 200C145 177.89 145 155.78 145 133C149.29 133 153.58 133 158 133C158 129.37 158 125.74 158 122C161.63 122 165.26 122 169 122C169 112.76 169 103.52 169 94C165.37 94 161.74 94 158 94C158 82.45 158 70.9 158 59C165.59 59 173.18 59 181 59C181 62.96 181 66.92 181 71C184.63 71 188.26 71 192 71C192 74.63 192 78.26 192 82C200.25 82 208.5 82 217 82C217 78.7 217 75.4 217 72C220.63 72 224.26 72 228 72C228 67.71 228 63.42 228 59C255.39 59 282.78 59 311 59C311 62.96 311 66.92 311 71C319.58 71 328.16 71 337 71C337 66.71 337 62.42 337 58C340.63 58 344.26 58 348 58C348 53.71 348 49.42 348 45Z" fill="#9297A2"/>
<path d="M146.943 32.8789C147.793 32.8811 148.644 32.8833 149.52 32.8856C150.961 32.8857 150.961 32.8857 152.432 32.8859C153.999 32.8936 153.999 32.8936 155.598 32.9015C156.662 32.9029 157.726 32.9043 158.822 32.9058C162.235 32.9114 165.649 32.924 169.062 32.9367C171.37 32.9417 173.678 32.9462 175.986 32.9503C181.658 32.9614 187.329 32.9787 193 32.9992C193 37.2892 193 41.5792 193 45.9992C197.29 45.6692 201.58 45.3392 206 44.9992C206 49.2892 206 53.5792 206 57.9992C212.93 58.3292 219.86 58.6592 227 58.9992C227 54.7092 227 50.4192 227 45.9992C255.05 45.9992 283.1 45.9992 312 45.9992C312 50.2892 312 54.5792 312 58.9992C316.95 58.9992 321.9 58.9992 327 58.9992C327 54.3792 327 49.7592 327 44.9992C330.96 44.9992 334.92 44.9992 339 44.9992C339 41.0392 339 37.0792 339 32.9992C350.22 32.9992 361.44 32.9992 373 32.9992C373 36.6292 373 40.2592 373 43.9992C376.96 43.9992 380.92 43.9992 385 43.9992C385 70.7292 385 97.4592 385 124.999C388.63 124.999 392.26 124.999 396 124.999C396 150.079 396 175.159 396 200.999C392.37 200.999 388.74 200.999 385 200.999C385 208.589 385 216.179 385 223.999C382.03 223.999 379.06 223.999 376 223.999C376 225.649 376 227.299 376 228.999C375.01 228.999 374.02 228.999 373 228.999C373.33 233.619 373.66 238.239 374 242.999C370.04 242.669 366.08 242.339 362 241.999C362 245.959 362 249.919 362 253.999C357.05 253.669 352.1 253.339 347 252.999C347.33 257.289 347.66 261.579 348 265.999C346.68 265.669 345.36 265.339 344 264.999C343.67 266.979 343.34 268.959 343 270.999C347.95 270.999 352.9 270.999 358 270.999C358 274.299 358 277.599 358 280.999C359.32 281.329 360.64 281.659 362 281.999C362 285.299 362 288.599 362 291.999C365.96 291.999 369.92 291.999 374 291.999C374.098 300.495 374.098 300.495 374 302.999C373 303.999 373 303.999 370.277 304.097C368.624 304.079 368.624 304.079 366.938 304.062C365.833 304.053 364.728 304.044 363.59 304.034C362.308 304.017 362.308 304.017 361 303.999C361 300.369 361 296.739 361 292.999C357.04 292.999 353.08 292.999 349 292.999C349 289.369 349 285.739 349 281.999C345.37 281.999 341.74 281.999 338 281.999C338 285.629 338 289.259 338 292.999C334.7 292.999 331.4 292.999 328 292.999C327.67 283.429 327.34 273.859 327 263.999C323.04 263.999 319.08 263.999 315 263.999C315 260.369 315 256.739 315 252.999C322.59 252.999 330.18 252.999 338 252.999C338 249.369 338 245.739 338 241.999C341.96 241.999 345.92 241.999 350 241.999C350 238.699 350 235.399 350 231.999C353.63 231.999 357.26 231.999 361 231.999C361 228.699 361 225.399 361 221.999C364.63 221.999 368.26 221.999 372 221.999C372 215.069 372 208.139 372 200.999C368.37 200.999 364.74 200.999 361 200.999C361 198.029 361 195.059 361 191.999C357.7 191.999 354.4 191.999 351 191.999C351 198.269 351 204.539 351 210.999C347.7 210.999 344.4 210.999 341 210.999C341 214.299 341 217.599 341 220.999C335.06 220.999 329.12 220.999 323 220.999C323 217.699 323 214.399 323 210.999C319.37 210.999 315.74 210.999 312 210.999C312 204.399 312 197.799 312 190.999C324.54 190.999 337.08 190.999 350 190.999C350 188.029 350 185.059 350 181.999C345.38 181.999 340.76 181.999 336 181.999C336 168.469 336 154.939 336 140.999C339.63 140.999 343.26 140.999 347 140.999C347 137.699 347 134.399 347 130.999C351.95 130.999 356.9 130.999 362 130.999C362 134.299 362 137.599 362 140.999C365.63 140.999 369.26 140.999 373 140.999C373 144.629 373 148.259 373 151.999C376.63 151.999 380.26 151.999 384 151.999C384 143.749 384 135.499 384 126.999C380.37 126.999 376.74 126.999 373 126.999C373 121.059 373 115.119 373 108.999C369.04 108.999 365.08 108.999 361 108.999C361 103.719 361 98.4392 361 92.9992C364.63 92.6692 368.26 92.3392 372 91.9992C372.33 76.4892 372.66 60.9792 373 44.9992C364.75 44.9992 356.5 44.9992 348 44.9992C348 49.2892 348 53.5792 348 57.9992C344.37 57.9992 340.74 57.9992 337 57.9992C337 62.2892 337 66.5792 337 70.9992C328.42 70.9992 319.84 70.9992 311 70.9992C311 67.0392 311 63.0792 311 58.9992C283.61 58.9992 256.22 58.9992 228 58.9992C228 63.2892 228 67.5792 228 71.9992C224.37 71.9992 220.74 71.9992 217 71.9992C217 75.2992 217 78.5992 217 81.9992C208.75 81.9992 200.5 81.9992 192 81.9992C192 78.3692 192 74.7392 192 70.9992C188.37 70.9992 184.74 70.9992 181 70.9992C181 67.0392 181 63.0792 181 58.9992C173.41 58.9992 165.82 58.9992 158 58.9992C158 70.5492 158 82.0992 158 93.9992C161.63 93.9992 165.26 93.9992 169 93.9992C169 103.239 169 112.479 169 121.999C165.37 121.999 161.74 121.999 158 121.999C158 125.629 158 129.259 158 132.999C153.71 132.999 149.42 132.999 145 132.999C145 155.109 145 177.219 145 199.999C149.29 199.999 153.58 199.999 158 199.999C158 206.929 158 213.859 158 220.999C161.63 220.999 165.26 220.999 169 220.999C169 224.299 169 227.599 169 230.999C172.96 230.999 176.92 230.999 181 230.999C181 234.629 181 238.259 181 241.999C192.55 241.999 204.1 241.999 216 241.999C216 245.299 216 248.599 216 251.999C206.76 251.999 197.52 251.999 188 251.999C188 254.969 188 257.939 188 260.999C181.4 260.999 174.8 260.999 168 260.999C168 264.629 168 268.259 168 271.999C164.37 271.999 160.74 271.999 157 271.999C157 275.299 157 278.599 157 281.999C153.37 281.999 149.74 281.999 146 281.999C146 285.629 146 289.259 146 292.999C142.37 292.999 138.74 292.999 135 292.999C135 296.959 135 300.919 135 304.999C131.37 304.999 127.74 304.999 124 304.999C124 308.299 124 311.599 124 314.999C120.04 314.999 116.08 314.999 112 314.999C112 311.369 112 307.739 112 303.999C115.63 303.999 119.26 303.999 123 303.999C122.67 300.039 122.34 296.079 122 291.999C125.63 291.999 129.26 291.999 133 291.999C133.124 290.37 133.248 288.74 133.375 287.062C133.586 284.284 133.586 284.284 134 281.999C137.467 280.266 141.239 281.516 145 281.999C145 278.369 145 274.739 145 270.999C148.63 270.999 152.26 270.999 156 270.999C156 267.369 156 263.739 156 259.999C159.96 259.999 163.92 259.999 168 259.999C168 250.759 168 241.519 168 231.999C164.37 231.999 160.74 231.999 157 231.999C157 228.699 157 225.399 157 221.999C152.71 222.329 148.42 222.659 144 222.999C144.33 215.739 144.66 208.479 145 200.999C140.71 200.999 136.42 200.999 132 200.999C132 178.229 132 155.459 132 131.999C136.29 131.999 140.58 131.999 145 131.999C145 124.079 145 116.159 145 107.999C140.71 107.999 136.42 107.999 132 107.999C132 87.5392 132 67.0792 132 45.9992C137.94 45.5042 137.94 45.5042 144 44.9992C143.979 43.2048 143.959 41.4104 143.938 39.5617C143.916 37.7075 143.928 35.852 144 33.9992C145 32.9992 145 32.9992 146.943 32.8789Z" fill="#24262D"/>
<path d="M250 282C263.2 282 276.4 282 290 282C290 289.59 290 297.18 290 305C293.96 305 297.92 305 302 305C302 315.56 302 326.12 302 337C305.63 337 309.26 337 313 337C313 343.93 313 350.86 313 358C316.96 358 320.92 358 325 358C325 350.74 325 343.48 325 336C321.37 336 317.74 336 314 336C314 325.44 314 314.88 314 304C310.04 304 306.08 304 302 304C302 296.74 302 289.48 302 282C308.93 282 315.86 282 323 282C323 285.63 323 289.26 323 293C327.95 293 332.9 293 338 293C338 303.89 338 314.78 338 326C341.3 326 344.6 326 348 326C348 329.63 348 333.26 348 337C350.97 337 353.94 337 357 337C357 356.47 357 375.94 357 396C350.73 396 344.46 396 338 396C338 402.93 338 409.86 338 417C334.04 417 330.08 417 326 417C326 420.3 326 423.6 326 427C318.41 427 310.82 427 303 427C303 424.03 303 421.06 303 418C306.63 418 310.26 418 314 418C314 410.74 314 403.48 314 396C317.63 396 321.26 396 325 396C325 389.4 325 382.8 325 376C321.04 376 317.08 376 313 376C313 382.27 313 388.54 313 395C309.37 395 305.74 395 302 395C302 402.26 302 409.52 302 417C298.37 417 294.74 417 291 417C291 420.3 291 423.6 291 427C281.76 427 272.52 427 263 427C263 423.7 263 420.4 263 417C255.08 417 247.16 417 239 417C239 409.74 239 402.48 239 395C235.37 395 231.74 395 228 395C228 384.11 228 373.22 228 362C224.37 362 220.74 362 217 362C217 353.42 217 344.84 217 336C220.63 336 224.26 336 228 336C228 325.77 228 315.54 228 305C231.63 305 235.26 305 239 305C239 301.37 239 297.74 239 294C242.63 294 246.26 294 250 294C250 290.04 250 286.08 250 282Z" fill="#A8ACB7"/>
<path d="M338 282C341.63 282 345.26 282 349 282C349 285.63 349 289.26 349 293C352.96 293 356.92 293 361 293C361 296.63 361 300.26 361 304C362.234 303.874 362.234 303.874 363.492 303.746C370.5 303.107 377.033 302.978 384 304C384.879 307.734 385.089 311.168 385 315C390.445 315.495 390.445 315.495 396 316C396.872 320.358 397.104 323.907 397.062 328.312C397.053 329.567 397.044 330.821 397.035 332.113C397.024 333.066 397.012 334.019 397 335C400.3 335.33 403.6 335.66 407 336C407 339.63 407 343.26 407 347C408.32 346.67 409.64 346.34 411 346C410.67 348.64 410.34 351.28 410 354C412.97 354 415.94 354 419 354C419.33 368.52 419.66 383.04 420 398C412.41 398 404.82 398 397 398C397 401.96 397 405.92 397 410C387.76 410 378.52 410 369 410C369 425.84 369 441.68 369 458C381.375 457.505 381.375 457.505 394 457C393.67 461.62 393.34 466.24 393 471C396.96 471 400.92 471 405 471C405 478.59 405 486.18 405 494C401.37 494 397.74 494 394 494C394.33 494.99 394.66 495.98 395 497C395.13 500.006 395.044 502.989 395 506C390.71 506 386.42 506 382 506C382 508.64 382 511.28 382 514C373.75 513.67 365.5 513.34 357 513C357.33 516.96 357.66 520.92 358 525C342.82 524.67 327.64 524.34 312 524C312.33 515.42 312.66 506.84 313 498C308.71 498 304.42 498 300 498C300.33 491.4 300.66 484.8 301 478C297.04 478.33 293.08 478.66 289 479C288.875 469.25 288.875 469.25 290 467C289.34 466.67 288.68 466.34 288 466C288.66 466 289.32 466 290 466C290 462.7 290 459.4 290 456C297.59 456 305.18 456 313 456C313 448.41 313 440.82 313 433C320.59 433 328.18 433 336 433C336 429.37 336 425.74 336 422C339.96 422 343.92 422 348 422C348 418.37 348 414.74 348 411C350.97 411 353.94 411 357 411C357 386.58 357 362.16 357 337C354.03 337 351.06 337 348 337C348 333.37 348 329.74 348 326C344.7 326 341.4 326 338 326C338 311.48 338 296.96 338 282Z" fill="#1E222A"/>
<path d="M358 338C361.3 338 364.6 338 368 338C368 357.8 368 377.6 368 398C377.24 398 386.48 398 396 398C396.495 403.94 396.495 403.94 397 410C387.76 410 378.52 410 369 410C369 425.84 369 441.68 369 458C381.375 457.505 381.375 457.505 394 457C393.67 461.62 393.34 466.24 393 471C396.96 471 400.92 471 405 471C405 478.59 405 486.18 405 494C401.37 494 397.74 494 394 494C394.33 494.99 394.66 495.98 395 497C395.13 500.006 395.044 502.989 395 506C390.71 506 386.42 506 382 506C382 508.64 382 511.28 382 514C373.75 513.67 365.5 513.34 357 513C357.33 516.96 357.66 520.92 358 525C342.82 524.67 327.64 524.34 312 524C312.33 515.42 312.66 506.84 313 498C308.71 498 304.42 498 300 498C300.33 491.4 300.66 484.8 301 478C297.04 478.33 293.08 478.66 289 479C288.75 469.375 288.75 469.375 291 466C293.602 465.707 293.602 465.707 296.625 465.812C298.129 465.853 298.129 465.853 299.664 465.895C300.435 465.929 301.206 465.964 302 466C302 469.3 302 472.6 302 476C313.55 476 325.1 476 337 476C337 473.03 337 470.06 337 467C343.6 467 350.2 467 357 467C356.994 465.121 356.988 463.243 356.982 461.307C356.931 436.411 357.183 411.521 357.464 386.627C357.525 381.121 357.585 375.615 357.645 370.109C357.761 359.406 357.88 348.703 358 338Z" fill="#23262D"/>
<path d="M337 110C345.25 110 353.5 110 362 110C362 112.97 362 115.94 362 119C365.3 119 368.6 119 372 119C372 121.64 372 124.28 372 127C375.96 127 379.92 127 384 127C384 135.25 384 143.5 384 152C380.37 152 376.74 152 373 152C373 148.37 373 144.74 373 141C369.37 141 365.74 141 362 141C362 137.7 362 134.4 362 131C357.05 131 352.1 131 347 131C347 134.3 347 137.6 347 141C343.37 141 339.74 141 336 141C336 154.53 336 168.06 336 182C340.62 182 345.24 182 350 182C350 184.97 350 187.94 350 191C337.46 191 324.92 191 312 191C312 197.6 312 204.2 312 211C315.63 211 319.26 211 323 211C323 214.3 323 217.6 323 221C328.94 221 334.88 221 341 221C341 217.7 341 214.4 341 211C344.3 211 347.6 211 351 211C351 204.73 351 198.46 351 192C354.3 192 357.6 192 361 192C361 194.97 361 197.94 361 201C364.63 201 368.26 201 372 201C372 207.93 372 214.86 372 222C368.37 222 364.74 222 361 222C361 225.3 361 228.6 361 232C351.561 233.054 342.219 233.13 332.738 233.098C331.095 233.096 329.452 233.094 327.808 233.093C323.519 233.09 319.23 233.08 314.941 233.069C310.55 233.058 306.159 233.054 301.768 233.049C293.178 233.038 284.589 233.021 276 233C276 229.37 276 225.74 276 222C272.7 222 269.4 222 266 222C266 214.41 266 206.82 266 199C269.3 199 272.6 199 276 199C276 195.37 276 191.74 276 188C280.29 188 284.58 188 289 188C289 172.49 289 156.98 289 141C292.63 141 296.26 141 300 141C300 150.24 300 159.48 300 169C308.25 169 316.5 169 325 169C325 156.13 325 143.26 325 130C328.3 130 331.6 130 335 130C334.979 128.536 334.959 127.071 334.938 125.562C334.916 124.042 334.928 122.519 335 121C335.33 120.67 335.66 120.34 336 120C336.33 116.7 336.66 113.4 337 110Z" fill="#FAFAFA"/>
<path d="M236 131C249.2 131 262.4 131 276 131C276 134.3 276 137.6 276 141C279.96 141 283.92 141 288 141C288 156.51 288 172.02 288 188C284.04 188 280.08 188 276 188C276 191.63 276 195.26 276 199C272.37 199 268.74 199 265 199C265 202.63 265 206.26 265 210C244.87 210 224.74 210 204 210C204 206.7 204 203.4 204 200C200.04 200 196.08 200 192 200C192 187.46 192 174.92 192 162C195.96 162 199.92 162 204 162C204 158.7 204 155.4 204 152C207.63 152 211.26 152 215 152C215 148.37 215 144.74 215 141C221.93 141 228.86 141 236 141C236 137.7 236 134.4 236 131Z" fill="#24272F"/>
<path d="M169 262C178.57 262 188.14 262 198 262C198 264.97 198 267.94 198 271C201.3 271 204.6 271 208 271C208 278.26 208 285.52 208 293C204.7 293 201.4 293 198 293C198 296.63 198 300.26 198 304C194.04 304 190.08 304 186 304C186 311.59 186 319.18 186 327C182.37 327 178.74 327 175 327C175 332.94 175 338.88 175 345C171.37 345 167.74 345 164 345C164 351.27 164 357.54 164 364C160.37 364 156.74 364 153 364C153 367.96 153 371.92 153 376C149.04 376 145.08 376 141 376C141 372.37 141 368.74 141 365C135.39 365 129.78 365 124 365C124 361.7 124 358.4 124 355C120.04 355 116.08 355 112 355C112 353.02 112 351.04 112 349C108.7 349 105.4 349 102 349C102 345.04 102 341.08 102 337C105.63 337 109.26 337 113 337C112.67 329.74 112.34 322.48 112 315C115.96 315 119.92 315 124 315C124 311.7 124 308.4 124 305C127.63 305 131.26 305 135 305C135 301.04 135 297.08 135 293C138.63 293 142.26 293 146 293C146 289.37 146 285.74 146 282C149.63 282 153.26 282 157 282C157 278.7 157 275.4 157 272C160.63 271.67 164.26 271.34 168 271C168.33 268.03 168.66 265.06 169 262Z" fill="#9499A4"/>
<path d="M146.943 32.8789C147.793 32.8811 148.644 32.8833 149.52 32.8856C150.961 32.8857 150.961 32.8857 152.432 32.8859C153.999 32.8936 153.999 32.8936 155.598 32.9015C156.662 32.9029 157.726 32.9043 158.822 32.9058C162.235 32.9114 165.649 32.924 169.062 32.9367C171.37 32.9417 173.678 32.9462 175.986 32.9503C181.658 32.9614 187.329 32.9787 193 32.9992C193 37.2892 193 41.5792 193 45.9992C197.29 45.6692 201.58 45.3392 206 44.9992C206.098 55.0578 206.098 55.0578 206 57.9992C205 58.9992 205 58.9992 202.277 59.0968C200.624 59.0794 200.624 59.0794 198.938 59.0617C197.833 59.0526 196.728 59.0436 195.59 59.0343C194.735 59.0227 193.881 59.0111 193 58.9992C192.505 53.5542 192.505 53.5542 192 47.9992C176.49 47.6692 160.98 47.3392 145 46.9992C145.495 49.9692 145.495 49.9692 146 52.9992C146.081 54.8772 146.118 56.7576 146.114 58.6373C146.113 59.718 146.113 60.7987 146.113 61.9121C146.108 63.0623 146.103 64.2125 146.098 65.3976C146.096 66.5877 146.095 67.7778 146.093 69.004C146.088 72.794 146.075 76.5841 146.062 80.3742C146.057 82.9484 146.053 85.5226 146.049 88.0968C146.038 94.3976 146.021 100.698 146 106.999C149.96 106.999 153.92 106.999 158 106.999C158 115.579 158 124.159 158 132.999C153.71 132.999 149.42 132.999 145 132.999C145 155.109 145 177.219 145 199.999C149.29 199.999 153.58 199.999 158 199.999C158 206.929 158 213.859 158 220.999C161.63 220.999 165.26 220.999 169 220.999C169 224.299 169 227.599 169 230.999C172.96 230.999 176.92 230.999 181 230.999C181 234.629 181 238.259 181 241.999C192.55 241.999 204.1 241.999 216 241.999C216 245.299 216 248.599 216 251.999C206.76 251.999 197.52 251.999 188 251.999C188 254.969 188 257.939 188 260.999C181.4 260.999 174.8 260.999 168 260.999C168 264.629 168 268.259 168 271.999C164.37 271.999 160.74 271.999 157 271.999C157 275.299 157 278.599 157 281.999C153.37 281.999 149.74 281.999 146 281.999C146 285.629 146 289.259 146 292.999C142.37 292.999 138.74 292.999 135 292.999C135 296.959 135 300.919 135 304.999C131.37 304.999 127.74 304.999 124 304.999C124 308.299 124 311.599 124 314.999C120.04 314.999 116.08 314.999 112 314.999C112 311.369 112 307.739 112 303.999C115.63 303.999 119.26 303.999 123 303.999C122.67 300.039 122.34 296.079 122 291.999C125.63 291.999 129.26 291.999 133 291.999C133.124 290.37 133.248 288.74 133.375 287.062C133.586 284.284 133.586 284.284 134 281.999C137.467 280.266 141.239 281.516 145 281.999C145 278.369 145 274.739 145 270.999C148.63 270.999 152.26 270.999 156 270.999C156 267.369 156 263.739 156 259.999C159.96 259.999 163.92 259.999 168 259.999C168 250.759 168 241.519 168 231.999C164.37 231.999 160.74 231.999 157 231.999C157 228.699 157 225.399 157 221.999C152.71 222.329 148.42 222.659 144 222.999C144.33 215.739 144.66 208.479 145 200.999C140.71 200.999 136.42 200.999 132 200.999C132 178.229 132 155.459 132 131.999C136.29 131.999 140.58 131.999 145 131.999C145 124.079 145 116.159 145 107.999C140.71 107.999 136.42 107.999 132 107.999C132 87.5392 132 67.0792 132 45.9992C137.94 45.5042 137.94 45.5042 144 44.9992C143.979 43.2048 143.959 41.4104 143.938 39.5617C143.916 37.7075 143.928 35.852 144 33.9992C145 32.9992 145 32.9992 146.943 32.8789Z" fill="#1E1E20"/>
<path d="M217 110C236.14 110 255.28 110 275 110C275 113.3 275 116.6 275 120C279.29 120 283.58 120 288 120C288 126.93 288 133.86 288 141C284.04 141 280.08 141 276 141C276 137.7 276 134.4 276 131C262.8 131 249.6 131 236 131C236 134.3 236 137.6 236 141C229.07 141 222.14 141 215 141C215 144.63 215 148.26 215 152C211.37 152 207.74 152 204 152C204 155.3 204 158.6 204 162C200.04 162 196.08 162 192 162C192 174.54 192 187.08 192 200C195.96 200 199.92 200 204 200C204 203.63 204 207.26 204 211C220.83 211 237.66 211 255 211C255 214.63 255 218.26 255 222C234.21 222 213.42 222 192 222C192 218.04 192 214.08 192 210C188.37 210 184.74 210 181 210C180.13 202.609 179.913 195.443 180 188C176.37 188 172.74 188 169 188C169 181.07 169 174.14 169 167C172.63 167 176.26 167 180 167C180 162.05 180 157.1 180 152C183.96 152 187.92 152 192 152C192 144.74 192 137.48 192 130C195.96 130 199.92 130 204 130C204 126.7 204 123.4 204 120C208.29 120 212.58 120 217 120C217 116.7 217 113.4 217 110Z" fill="#FBFCFB"/>
<path d="M347 131C351.95 131 356.9 131 362 131C362 134.3 362 137.6 362 141C365.63 141 369.26 141 373 141C373 144.63 373 148.26 373 152C376.63 152 380.26 152 384 152C384.206 184.308 384.206 184.308 383 199C375.574 200.609 368.595 201.264 361 201C361 198.03 361 195.06 361 192C357.7 192 354.4 192 351 192C351 198.27 351 204.54 351 211C347.7 211 344.4 211 341 211C341 214.3 341 217.6 341 221C335.06 221 329.12 221 323 221C323 217.7 323 214.4 323 211C319.37 211 315.74 211 312 211C312 204.4 312 197.8 312 191C324.54 191 337.08 191 350 191C350 188.03 350 185.06 350 182C345.38 182 340.76 182 336 182C336 168.47 336 154.94 336 141C339.63 141 343.26 141 347 141C347 137.7 347 134.4 347 131Z" fill="#242831"/>
<path d="M265 199C265.33 199 265.66 199 266 199C266 206.59 266 214.18 266 222C269.3 222 272.6 222 276 222C276 225.63 276 229.26 276 233C300.42 233 324.84 233 350 233C350 235.97 350 238.94 350 242C346.04 242 342.08 242 338 242C338 245.3 338 248.6 338 252C305.33 252 272.66 252 239 252C239 248.37 239 244.74 239 241C227.78 241 216.56 241 205 241C204.67 238.03 204.34 235.06 204 232C200.04 231.67 196.08 231.34 192 231C192 228.03 192 225.06 192 222C212.79 222 233.58 222 255 222C255 218.37 255 214.74 255 211C238.17 211 221.34 211 204 211C204 210.67 204 210.34 204 210C224.13 210 244.26 210 265 210C265 206.37 265 202.74 265 199Z" fill="#969BA5"/>
<path d="M79 397.001C86.4284 396.904 93.6107 397.233 101 398.001C101 401.631 101 405.261 101 409.001C107.93 409.001 114.86 409.001 122 409.001C122 421.211 122 433.421 122 446.001C125.96 446.001 129.92 446.001 134 446.001C134 449.961 134 453.921 134 458.001C115.52 458.001 97.04 458.001 78 458.001C78 454.371 78 450.741 78 447.001C74.7 447.001 71.4 447.001 68 447.001C68 433.801 68 420.601 68 407.001C71.63 407.001 75.26 407.001 79 407.001C79 403.701 79 400.401 79 397.001Z" fill="#222630"/>
<path d="M170 422C173.63 422 177.26 422 181 422C181 429.59 181 437.18 181 445C177.04 445 173.08 445 169 445C169 451.93 169 458.86 169 466C165.37 466 161.74 466 158 466C158 477.55 158 489.1 158 501C161.63 501 165.26 501 169 501C169 504.96 169 508.92 169 513C165.04 513 161.08 513 157 513C157 509.37 157 505.74 157 502C153.04 502 149.08 502 145 502C145 491.44 145 480.88 145 470C119.26 470 93.52 470 67 470C67.33 466.37 67.66 462.74 68 459C66.8566 459.012 65.7132 459.023 64.5352 459.035C63.0443 459.045 61.5534 459.054 60.0625 459.062C59.3078 459.071 58.553 459.079 57.7754 459.088C55.8501 459.097 53.9246 459.052 52 459C51 458 51 458 50.9023 456.152C50.9512 453.076 50.9512 453.076 51 450C47.04 449.67 43.08 449.34 39 449C39.66 448.67 40.32 448.34 41 448C41 444.37 41 440.74 41 437C44.63 437 48.26 437 52 437C52 440.3 52 443.6 52 447C60.58 447 69.16 447 78 447C78 450.63 78 454.26 78 458C100.44 458 122.88 458 146 458C146 454.04 146 450.08 146 446C149.63 446 153.26 446 157 446C156.979 444.783 156.959 443.566 156.938 442.312C156.88 438.913 157.305 436.473 158 433C161.96 433 165.92 433 170 433C170 429.37 170 425.74 170 422ZM147 458C147 460.31 147 462.62 147 465C150.3 465 153.6 465 157 465C157 462.69 157 460.38 157 458C153.7 458 150.4 458 147 458Z" fill="#080909"/>
<path d="M158 200C165.59 200 173.18 200 181 200C181 203.3 181 206.6 181 210C184.63 210 188.26 210 192 210C192 216.93 192 223.86 192 231C193.959 230.979 195.919 230.959 197.938 230.938C199.958 230.916 201.98 230.928 204 231C205 232 205 232 205 241C216.22 241 227.44 241 239 241C239 244.63 239 248.26 239 252C271.67 252 304.34 252 338 252C338 252.33 338 252.66 338 253C330.41 253 322.82 253 315 253C315 256.63 315 260.26 315 264C318.96 264 322.92 264 327 264C327 264.33 327 264.66 327 265C294 265 261 265 227 265C227 260.71 227 256.42 227 252C223.37 252 219.74 252 216 252C216 248.7 216 245.4 216 242C204.45 242 192.9 242 181 242C181 238.37 181 234.74 181 231C177.04 231 173.08 231 169 231C169 227.7 169 224.4 169 221C165.37 221 161.74 221 158 221C158 214.07 158 207.14 158 200Z" fill="#444B56"/>
<path d="M372 200C375.63 200 379.26 200 383 200C383 207.59 383 215.18 383 223C380.36 223 377.72 223 375 223C375 224.32 375 225.64 375 227C374.01 227.495 374.01 227.495 373 228C372.53 231.046 372.53 231.046 372.375 234.562C372.3 235.76 372.225 236.958 372.148 238.191C372.099 239.118 372.05 240.045 372 241C368.37 241 364.74 241 361 241C361.495 247.435 361.495 247.435 362 254C357.05 253.67 352.1 253.34 347 253C347.495 259.435 347.495 259.435 348 266C346.68 265.67 345.36 265.34 344 265C343.67 266.98 343.34 268.96 343 271C347.95 271 352.9 271 358 271C358 274.3 358 277.6 358 281C359.32 281.33 360.64 281.66 362 282C362 285.3 362 288.6 362 292C365.96 292 369.92 292 374 292C374.098 300.496 374.098 300.496 374 303C373 304 373 304 370.277 304.098C369.175 304.086 368.073 304.074 366.938 304.062C365.833 304.053 364.728 304.044 363.59 304.035C362.735 304.024 361.881 304.012 361 304C361 300.37 361 296.74 361 293C357.04 293 353.08 293 349 293C349 289.37 349 285.74 349 282C345.37 282 341.74 282 338 282C338 285.63 338 289.26 338 293C334.7 293 331.4 293 328 293C327.67 283.43 327.34 273.86 327 264C323.04 264 319.08 264 315 264C315 260.37 315 256.74 315 253C322.59 253 330.18 253 338 253C338 249.37 338 245.74 338 242C341.96 242 345.92 242 350 242C350 238.7 350 235.4 350 232C353.63 232 357.26 232 361 232C361 228.7 361 225.4 361 222C364.63 222 368.26 222 372 222C372 214.74 372 207.48 372 200Z" fill="#030304"/>
<path d="M358 338C361.3 338 364.6 338 368 338C368 357.8 368 377.6 368 398C377.24 398 386.48 398 396 398C396.495 403.94 396.495 403.94 397 410C387.43 409.67 377.86 409.34 368 409C368 425.5 368 442 368 459C371.3 459 374.6 459 378 459C380.543 459.138 383.086 459.301 385.625 459.5C386.834 459.593 388.043 459.686 389.289 459.781C390.184 459.853 391.078 459.926 392 460C392 463.3 392 466.6 392 470C382.76 470 373.52 470 364 470C364 469.34 364 468.68 364 468C362.02 468 360.04 468 358 468C358 425.1 358 382.2 358 338Z" fill="#000102"/>
<path d="M373 45C376.3 45 379.6 45 383 45C383.33 71.4 383.66 97.8 384 125C387.63 125.33 391.26 125.66 395 126C395 150.42 395 174.84 395 200C391.37 200 387.74 200 384 200C384 175.91 384 151.82 384 127C380.37 127 376.74 127 373 127C373 121.06 373 115.12 373 109C369.04 109 365.08 109 361 109C361 103.72 361 98.44 361 93C366.445 92.505 366.445 92.505 372 92C372.33 76.49 372.66 60.98 373 45Z" fill="#010101"/>
<path d="M338 433C344.27 433 350.54 433 357 433C357 444.22 357 455.44 357 467C350.4 467 343.8 467 337 467C337 469.97 337 472.94 337 476C325.45 476 313.9 476 302 476C302 472.7 302 469.4 302 466C297.38 466.33 292.76 466.66 288 467C288.99 466.505 288.99 466.505 290 466C290 462.7 290 459.4 290 456C297.59 456 305.18 456 313 456C313 452.37 313 448.74 313 445C321.25 445 329.5 445 338 445C338 441.04 338 437.08 338 433Z" fill="#6E7683"/>
<path d="M358 304C362.95 304.33 367.9 304.66 373 305C373 308.63 373 312.26 373 316C376.3 316 379.6 316 383 316C383 315.34 383 314.68 383 314C383.66 314.33 384.32 314.66 385 315C386.871 315.228 388.747 315.41 390.625 315.562C391.628 315.646 392.631 315.73 393.664 315.816C394.82 315.907 394.82 315.907 396 316C398.873 328.382 396.709 342.407 396 355C392.04 355 388.08 355 384 355C384 358.63 384 362.26 384 366C380.37 366 376.74 366 373 366C373 369.3 373 372.6 373 376C371.68 376 370.36 376 369 376C369 363.13 369 350.26 369 337C365.37 337 361.74 337 358 337C358 326.11 358 315.22 358 304Z" fill="#6D7583"/>
<path d="M51 386C51.33 386 51.66 386 52 386C52 389.3 52 392.6 52 396C64.54 396 77.08 396 90 396C90 396.33 90 396.66 90 397C86.37 397 82.74 397 79 397C79 400.3 79 403.6 79 407C75.37 407 71.74 407 68 407C68 420.2 68 433.4 68 447C62.72 447 57.44 447 52 447C52 443.7 52 440.4 52 437C48.37 437 44.74 437 41 437C41 440.63 41 444.26 41 448C40.67 448 40.34 448 40 448C40 444.7 40 441.4 40 438C38.68 438 37.36 438 36 438C36 427.11 36 416.22 36 405C36.99 405 37.98 405 39 405C39.33 401.7 39.66 398.4 40 395C43.63 395 47.26 395 51 395C51 392.03 51 389.06 51 386Z" fill="#22262F"/>
<path d="M348 45C356.25 45 364.5 45 373 45C373.023 51.6753 373.043 58.3504 373.055 65.0256C373.06 67.2984 373.067 69.5712 373.075 71.844C373.088 75.103 373.093 78.362 373.098 81.6211C373.103 82.644 373.108 83.6669 373.113 84.7208C373.113 85.6617 373.113 86.6026 373.114 87.572C373.116 88.4048 373.118 89.2375 373.12 90.0954C373 92 373 92 372 93C370.292 93.0871 368.581 93.107 366.871 93.0977C365.319 93.0928 365.319 93.0928 363.736 93.0879C362.648 93.0795 361.559 93.0711 360.438 93.0625C358.799 93.0557 358.799 93.0557 357.127 93.0488C354.418 93.037 351.709 93.0191 349 93C349 89.37 349 85.74 349 82C345.04 82 341.08 82 337 82C337 74.08 337 66.16 337 58C340.63 58 344.26 58 348 58C348 53.71 348 49.42 348 45Z" fill="#2A2E36"/>
<path d="M79 397.001C86.4284 396.904 93.6107 397.233 101 398.001C101 403.941 101 409.881 101 416.001C97.37 416.001 93.74 416.001 90 416.001C90 426.231 90 436.461 90 447.001C93.63 447.001 97.26 447.001 101 447.001C101 450.631 101 454.261 101 458.001C93.41 458.001 85.82 458.001 78 458.001C78 454.371 78 450.741 78 447.001C74.7 447.001 71.4 447.001 68 447.001C68 433.801 68 420.601 68 407.001C71.63 407.001 75.26 407.001 79 407.001C79 403.701 79 400.401 79 397.001Z" fill="#969BA6"/>
<path d="M158 59C165.59 59 173.18 59 181 59C181 62.96 181 66.92 181 71C184.63 71 188.26 71 192 71C192 74.63 192 78.26 192 82C195.3 82 198.6 82 202 82C202 83.98 202 85.96 202 88C198.7 88 195.4 88 192 88C191.67 91.96 191.34 95.92 191 100C187.7 100 184.4 100 181 100C181 103.63 181 107.26 181 111C177.04 111 173.08 111 169 111C169 105.39 169 99.78 169 94C165.37 94 161.74 94 158 94C158 82.45 158 70.9 158 59Z" fill="#F9F9F8"/>
<path d="M186 316C189.96 316 193.92 316 198 316C198 319.63 198 323.26 198 327C194.37 327 190.74 327 187 327C187 333.27 187 339.54 187 346C183.37 346 179.74 346 176 346C176 351.94 176 357.88 176 364C172.37 364 168.74 364 165 364C165 367.96 165 371.92 165 376C162.36 376 159.72 376 157 376C157 390.52 157 405.04 157 420C153.37 420 149.74 420 146 420C146 412.74 146 405.48 146 398C144.68 398 143.36 398 142 398C142 390.74 142 383.48 142 376C145.63 376 149.26 376 153 376C153 372.04 153 368.08 153 364C156.63 364 160.26 364 164 364C164 357.73 164 351.46 164 345C167.63 345 171.26 345 175 345C175 339.06 175 333.12 175 327C178.63 327 182.26 327 186 327C186 323.37 186 319.74 186 316Z" fill="#010101"/>
<path d="M158 200C165.59 200 173.18 200 181 200C181 203.3 181 206.6 181 210C184.63 210 188.26 210 192 210C192 216.93 192 223.86 192 231C193.959 230.979 195.919 230.959 197.938 230.938C199.958 230.916 201.98 230.928 204 231C205 232 205 232 205 241C216.22 241 227.44 241 239 241C239 244.63 239 248.26 239 252C271.67 252 304.34 252 338 252C338 252.33 338 252.66 338 253C305 253 272 253 238 253C238 249.37 238 245.74 238 242C219.19 242 200.38 242 181 242C181 238.37 181 234.74 181 231C177.04 231 173.08 231 169 231C169 227.7 169 224.4 169 221C165.37 221 161.74 221 158 221C158 214.07 158 207.14 158 200Z" fill="#5C626D"/>
<path d="M313 376C316.96 376 320.92 376 325 376C325 382.6 325 389.2 325 396C321.37 396 317.74 396 314 396C314 403.26 314 410.52 314 418C310.37 418 306.74 418 303 418C303 420.97 303 423.94 303 427C310.59 427 318.18 427 326 427C326 423.7 326 420.4 326 417C329.96 417 333.92 417 338 417C338 410.07 338 403.14 338 396C344.27 396 350.54 396 357 396C357 400.95 357 405.9 357 411C354.03 411 351.06 411 348 411C348 414.63 348 418.26 348 422C344.04 422 340.08 422 336 422C336 425.63 336 429.26 336 433C328.41 433 320.82 433 313 433C313 431.35 313 429.7 313 428C309.37 428 305.74 428 302 428C302 417.11 302 406.22 302 395C305.63 395 309.26 395 313 395C313 388.73 313 382.46 313 376Z" fill="#808591"/>
<path d="M347 131C351.95 131 356.9 131 362 131C362 134.3 362 137.6 362 141C365.63 141 369.26 141 373 141C373 144.63 373 148.26 373 152C376.63 152 380.26 152 384 152C384 152.33 384 152.66 384 153C376.577 153.115 369.375 152.868 362 152C362 157.28 362 162.56 362 168C357.71 168 353.42 168 349 168C349.33 172.62 349.66 177.24 350 182C345.38 182 340.76 182 336 182C336 168.47 336 154.94 336 141C339.63 141 343.26 141 347 141C347 137.7 347 134.4 347 131Z" fill="#242730"/>
<path d="M338 282C341.63 282 345.26 282 349 282C349 285.63 349 289.26 349 293C352.96 293 356.92 293 361 293C361 296.63 361 300.26 361 304C362.234 303.874 362.234 303.874 363.492 303.746C370.5 303.107 377.033 302.978 384 304C384.778 307.406 385.1 310.508 385 314C384.34 314 383.68 314 383 314C383 314.66 383 315.32 383 316C379.7 316 376.4 316 373 316C373 312.37 373 308.74 373 305C368.38 305 363.76 305 359 305C358.67 315.56 358.34 326.12 358 337C354.7 337 351.4 337 348 337C348 333.37 348 329.74 348 326C344.7 326 341.4 326 338 326C338 311.48 338 296.96 338 282Z" fill="#343944"/>
<path d="M313 444.999C313 448.629 313 452.259 313 455.999C305.41 455.999 297.82 455.999 290 455.999C290 459.299 290 462.599 290 465.999C286.7 465.669 283.4 465.339 280 464.999C279.505 461.039 279.505 461.039 279 456.999C271.41 456.999 263.82 456.999 256 456.999C255.67 458.649 255.34 460.299 255 461.999C253.68 462.329 252.36 462.659 251 462.999C250.67 466.959 250.34 470.919 250 474.999C243.07 474.999 236.14 474.999 229 474.999C229 472.029 229 469.059 229 465.999C232.3 465.669 235.6 465.339 239 464.999C239.33 462.359 239.66 459.719 240 456.999C243.3 456.999 246.6 456.999 250 456.999C250 453.369 250 449.739 250 445.999C255.597 445.853 261.194 445.711 266.791 445.572C268.684 445.524 270.578 445.476 272.471 445.426C285.984 445.074 299.483 444.937 313 444.999Z" fill="#040507"/>
<path d="M291 465.999C294.696 465.582 298.271 465.869 302 465.999C302 469.629 302 473.259 302 476.999C305.63 476.999 309.26 476.999 313 476.999C313.66 483.599 314.32 490.199 315 496.999C317.97 497.329 320.94 497.659 324 497.999C324 502.619 324 507.239 324 511.999C334.56 511.999 345.12 511.999 356 511.999C356 515.299 356 518.599 356 521.999C341.48 522.659 326.96 523.319 312 523.999C312.33 515.419 312.66 506.839 313 497.999C308.71 497.999 304.42 497.999 300 497.999C300.33 491.399 300.66 484.799 301 477.999C295.06 478.494 295.06 478.494 289 478.999C288.75 469.374 288.75 469.374 291 465.999Z" fill="black"/>
<path d="M228 47C255.39 47 282.78 47 311 47C311 50.96 311 54.92 311 59C283.61 59 256.22 59 228 59C228 55.04 228 51.08 228 47Z" fill="#000001"/>
<path d="M312 192C324.87 192 337.74 192 351 192C351 198.27 351 204.54 351 211C347.7 211 344.4 211 341 211C341 214.3 341 217.6 341 221C335.06 221 329.12 221 323 221C323 217.7 323 214.4 323 211C319.37 211 315.74 211 312 211C312 204.73 312 198.46 312 192Z" fill="#050505"/>
<path d="M340 34C350.56 34 361.12 34 372 34C372 37.63 372 41.26 372 45C364.08 45 356.16 45 348 45C348 49.29 348 53.58 348 58C344.37 58 340.74 58 337 58C337 62.29 337 66.58 337 71C328.75 71 320.5 71 312 71C312 67.37 312 63.74 312 60C317.28 60 322.56 60 328 60C328 55.38 328 50.76 328 46C331.96 46 335.92 46 340 46C340 42.04 340 38.08 340 34Z" fill="#010101"/>
<path d="M80 356C83.3 356 86.6 356 90 356C90 366.23 90 376.46 90 387C93.63 387 97.26 387 101 387C101 390.3 101 393.6 101 397C76.745 396.505 76.745 396.505 52 396C51.67 392.04 51.34 388.08 51 384C60.57 384.33 70.14 384.66 80 385C80 375.43 80 365.86 80 356Z" fill="#010202"/>
<path d="M133 133C136.96 133 140.92 133 145 133C145 155.11 145 177.22 145 200C141.04 200 137.08 200 133 200C133 177.89 133 155.78 133 133Z" fill="#010101"/>
<path d="M396 337C399.3 337 402.6 337 406 337C406 340.63 406 344.26 406 348C406.99 348 407.98 348 409 348C409 350.31 409 352.62 409 355C411.97 355 414.94 355 418 355C418 368.53 418 382.06 418 396C412.4 396.622 407.47 397.121 401.938 397.062C400.249 397.049 400.249 397.049 398.527 397.035C397.693 397.024 396.859 397.012 396 397C396 393.7 396 390.4 396 387C399.63 387 403.26 387 407 387C407 376.77 407 366.54 407 356C403.37 356 399.74 356 396 356C396 349.73 396 343.46 396 337Z" fill="#020202"/>
<path d="M170 422C173.63 422 177.26 422 181 422C181 429.59 181 437.18 181 445C177.04 445 173.08 445 169 445C169 451.6 169 458.2 169 465C165.37 465 161.74 465 158 465C158 462.36 158 459.72 158 457C154.04 457 150.08 457 146 457C146 453.37 146 449.74 146 446C149.63 446 153.26 446 157 446C156.979 444.783 156.959 443.566 156.938 442.312C156.88 438.913 157.305 436.473 158 433C161.96 433 165.92 433 170 433C170 429.37 170 425.74 170 422Z" fill="#010102"/>
<path d="M169 232C172.63 232 176.26 232 180 232C180 235.3 180 238.6 180 242C191.88 242 203.76 242 216 242C216 245.3 216 248.6 216 252C206.76 252 197.52 252 188 252C188 254.97 188 257.94 188 261C181.73 261 175.46 261 169 261C169 251.43 169 241.86 169 232Z" fill="#010101"/>
<path d="M133 47C136.96 47 140.92 47 145 47C145 66.8 145 86.6 145 107C141.04 107 137.08 107 133 107C133 87.2 133 67.4 133 47Z" fill="#010101"/>
<path d="M217 498C219.97 498 222.94 498 226 498C226 506.58 226 515.16 226 524C207.52 524 189.04 524 170 524C170 520.7 170 517.4 170 514C185.51 514 201.02 514 217 514C217 508.72 217 503.44 217 498Z" fill="#010101"/>
<path d="M194 432C201.26 432 208.52 432 216 432C216.33 432.66 216.66 433.32 217 434C219.356 434.468 219.356 434.468 222.062 434.625C223.692 434.749 225.321 434.873 227 435C227 438.63 227 442.26 227 446C230.96 446 234.92 446 239 446C239 448.97 239 451.94 239 455C227.78 455 216.56 455 205 455C205 451.04 205 447.08 205 443C201.37 443 197.74 443 194 443C194 439.37 194 435.74 194 432Z" fill="#9CA0AC"/>
<path d="M393 472C396.63 472 400.26 472 404 472C404.027 475.313 404.047 478.625 404.062 481.938C404.071 482.883 404.079 483.829 404.088 484.803C404.091 485.702 404.094 486.601 404.098 487.527C404.103 488.36 404.108 489.193 404.114 490.051C404 492 404 492 403 493C399.664 493.143 396.34 493.042 393 493C393 496.63 393 500.26 393 504C388.71 504 384.42 504 380 504C380 506.31 380 508.62 380 511C372.41 511 364.82 511 357 511C357 507.04 357 503.08 357 499C365.58 499 374.16 499 383 499C383 496.03 383 493.06 383 490C386.3 490 389.6 490 393 490C393 484.06 393 478.12 393 472Z" fill="#020203"/>
<path d="M158 200C165.59 200 173.18 200 181 200C181 203.3 181 206.6 181 210C184.63 210 188.26 210 192 210C192.098 218.496 192.098 218.496 192 221C191 222 191 222 187.857 222.022C186.466 221.979 185.075 221.931 183.684 221.879C182.953 221.855 182.221 221.832 181.468 221.807C179.124 221.731 176.781 221.647 174.438 221.562C172.852 221.509 171.267 221.457 169.682 221.404C165.788 221.276 161.894 221.138 158 221C158 214.07 158 207.14 158 200Z" fill="#818590"/>
<path d="M204 211C220.83 211 237.66 211 255 211C255 214.63 255 218.26 255 222C238.17 222 221.34 222 204 222C204 218.37 204 214.74 204 211Z" fill="#FDFDFC"/>
<path d="M144 34C159.51 34 175.02 34 191 34C191 37.96 191 41.92 191 46C176.15 46 161.3 46 146 46C146 45.34 146 44.68 146 44C145.34 44 144.68 44 144 44C144 40.7 144 37.4 144 34Z" fill="#010102"/>
<path d="M250 153C253.63 153 257.26 153 261 153C261 157.95 261 162.9 261 168C265.62 168 270.24 168 275 168C275 172.62 275 177.24 275 182C266.75 182 258.5 182 250 182C250 172.43 250 162.86 250 153Z" fill="#020202"/>
<path d="M361 58C364.63 58 368.26 58 372 58C372 69.22 372 80.44 372 92C368.7 92 365.4 92 362 92C362 88.7 362 85.4 362 82C358.04 82 354.08 82 350 82C350 78.04 350 74.08 350 70C353.63 70 357.26 70 361 70C361 66.04 361 62.08 361 58Z" fill="#CCD1D9"/>
<path d="M362 152C365.3 152 368.6 152 372 152C372 161.9 372 171.8 372 182C366.586 182.031 366.586 182.031 361.063 182.062C359.923 182.072 358.784 182.081 357.61 182.09C356.719 182.093 355.828 182.095 354.91 182.098C353.536 182.106 353.536 182.106 352.133 182.114C350 182 350 182 349 181C348.856 176.665 348.958 172.338 349 168C353.29 168 357.58 168 362 168C362 162.72 362 157.44 362 152Z" fill="#010103"/>
<path d="M145 33C160.84 33 176.68 33 193 33C193 37.29 193 41.58 193 46C197.29 45.67 201.58 45.34 206 45C206.098 55.0586 206.098 55.0586 206 58C205 59 205 59 202.277 59.0977C200.624 59.0803 200.624 59.0803 198.938 59.0625C197.833 59.0535 196.728 59.0445 195.59 59.0352C194.735 59.0236 193.881 59.012 193 59C192.505 53.555 192.505 53.555 192 48C162.795 47.505 162.795 47.505 133 47C133 66.8 133 86.6 133 107C136.96 107 140.92 107 145 107C145 89.18 145 71.36 145 53C145.33 53 145.66 53 146 53C146 70.82 146 88.64 146 107C149.96 107 153.92 107 158 107C158 107.33 158 107.66 158 108C154.04 108 150.08 108 146 108C146 115.59 146 123.18 146 131C145.67 131 145.34 131 145 131C145 123.41 145 115.82 145 108C140.71 108 136.42 108 132 108C132 87.54 132 67.08 132 46C137.94 45.505 137.94 45.505 144 45C144.66 44.67 145.32 44.34 146 44C146 44.66 146 45.32 146 46C160.85 46 175.7 46 191 46C191 42.04 191 38.08 191 34C175.82 34 160.64 34 145 34C145 33.67 145 33.34 145 33Z" fill="#202123"/>
<path d="M291 465.999C294.696 465.582 298.271 465.869 302 465.999C302 469.629 302 473.259 302 476.999C305.63 476.999 309.26 476.999 313 476.999C313.986 486.786 314.119 496.428 314.062 506.249C314.057 507.784 314.053 509.319 314.049 510.854C314.039 514.569 314.019 518.284 314 521.999C320.27 521.999 326.54 521.999 333 521.999C333 522.329 333 522.659 333 522.999C322.605 523.494 322.605 523.494 312 523.999C312.33 515.419 312.66 506.839 313 497.999C308.71 497.999 304.42 497.999 300 497.999C300.33 491.399 300.66 484.799 301 477.999C295.06 478.494 295.06 478.494 289 478.999C288.75 469.374 288.75 469.374 291 465.999Z" fill="#1B1B1C"/>
<path d="M145 133C149.29 133 153.58 133 158 133C158 135.97 158 138.94 158 142C154.04 142 150.08 142 146 142C146 153.55 146 165.1 146 177C149.96 177 153.92 177 158 177C158 184.59 158 192.18 158 200C153.71 200 149.42 200 145 200C145 177.89 145 155.78 145 133Z" fill="#696E7B"/>
<path d="M122 409C125.96 409 129.92 409 134 409C134 421.21 134 433.42 134 446C130.04 446 126.08 446 122 446C122 433.79 122 421.58 122 409Z" fill="#9398A3"/>
<path d="M101 398C114.2 398 127.4 398 141 398C141 401.63 141 405.26 141 409C127.8 409 114.6 409 101 409C101 405.37 101 401.74 101 398Z" fill="#030303"/>
<path d="M162 328C166.29 328 170.58 328 175 328C175 333.61 175 339.22 175 345C171.37 345 167.74 345 164 345C164 351.27 164 357.54 164 364C160.37 364 156.74 364 153 364C153 358.06 153 352.12 153 346C155.97 346 158.94 346 162 346C162 340.06 162 334.12 162 328Z" fill="#676D79"/>
<path d="M186 316C189.96 316 193.92 316 198 316C198 319.63 198 323.26 198 327C194.37 327 190.74 327 187 327C187 333.27 187 339.54 187 346C183.37 346 179.74 346 176 346C176 351.94 176 357.88 176 364C175.67 364 175.34 364 175 364C175 351.79 175 339.58 175 327C178.63 327 182.26 327 186 327C186 323.37 186 319.74 186 316Z" fill="#040507"/>
<path d="M181 200C188.59 200 196.18 200 204 200C204 207.26 204 214.52 204 222C200.04 222 196.08 222 192 222C192 218.04 192 214.08 192 210C188.37 210 184.74 210 181 210C181 206.7 181 203.4 181 200Z" fill="#B7BBC2"/>
<path d="M205 476C212.59 476 220.18 476 228 476C228 479.63 228 483.26 228 487C224.04 487 220.08 487 216 487C216 490.3 216 493.6 216 497C212.37 497 208.74 497 205 497C205 490.07 205 483.14 205 476Z" fill="#010101"/>
<path d="M205 60C212.26 60 219.52 60 227 60C227 63.96 227 67.92 227 72C223.37 72 219.74 72 216 72C216 74.97 216 77.94 216 81C212.37 81 208.74 81 205 81C205 74.07 205 67.14 205 60Z" fill="#000001"/>
<path d="M261.094 455.867C262.124 455.866 263.154 455.864 264.215 455.863C265.841 455.869 265.841 455.869 267.5 455.875C268.584 455.871 269.668 455.867 270.785 455.863C271.815 455.864 272.845 455.866 273.906 455.867C275.334 455.869 275.334 455.869 276.791 455.87C279 456 279 456 280 457C280.141 459.67 280.042 462.324 280 465C282.97 465 285.94 465 289 465C288.67 465.66 288.34 466.32 288 467C285.715 467.414 285.715 467.414 282.938 467.625C281.308 467.748 279.679 467.872 278 468C278.33 464.7 278.66 461.4 279 458C271.41 458 263.82 458 256 458C256.495 460.97 256.495 460.97 257 464C255.35 464.33 253.7 464.66 252 465C251.67 468.96 251.34 472.92 251 477C243.74 477 236.48 477 229 477C229 480.63 229 484.26 229 488C225.37 488 221.74 488 218 488C218 490.64 218 493.28 218 496C221.3 496.33 224.6 496.66 228 497C228 506.24 228 515.48 228 525C208.2 525.33 188.4 525.66 168 526C168 522.04 168 518.08 168 514C168.66 514 169.32 514 170 514C170 517.3 170 520.6 170 524C188.48 524 206.96 524 226 524C226 515.42 226 506.84 226 498C219.07 498 212.14 498 205 498C205 497.67 205 497.34 205 497C208.63 497 212.26 497 216 497C216 493.7 216 490.4 216 487C219.96 487 223.92 487 228 487C228 480.07 228 473.14 228 466C228.33 466 228.66 466 229 466C229 468.97 229 471.94 229 475C235.93 475 242.86 475 250 475C250 471.04 250 467.08 250 463C252.475 462.505 252.475 462.505 255 462C254.979 461.195 254.959 460.391 254.938 459.562C255.048 455.034 257.095 455.872 261.094 455.867Z" fill="#1A1A1B"/>
<path d="M216 242C223.26 242 230.52 242 238 242C238 245.63 238 249.26 238 253C234.7 253 231.4 253 228 253C228 256.63 228 260.26 228 264C260.67 264 293.34 264 327 264C327 264.33 327 264.66 327 265C294 265 261 265 227 265C227 260.71 227 256.42 227 252C223.37 252 219.74 252 216 252C216 248.7 216 245.4 216 242Z" fill="#535965"/>
<path d="M41 437C44.63 437 48.26 437 52 437C52 440.3 52 443.6 52 447C57.28 447 62.56 447 68 447C68 450.63 68 454.26 68 458C62.39 458 56.78 458 51 458C51 455.36 51 452.72 51 450C47.04 449.67 43.08 449.34 39 449C39.66 448.67 40.32 448.34 41 448C41 444.37 41 440.74 41 437Z" fill="#060709"/>
<path d="M313 433C321.25 433 329.5 433 338 433C338 436.96 338 440.92 338 445C329.75 445 321.5 445 313 445C313 441.04 313 437.08 313 433Z" fill="#2A2F39"/>
<path d="M146 108C149.96 108 153.92 108 158 108C158 116.25 158 124.5 158 133C154.04 133 150.08 133 146 133C146 124.75 146 116.5 146 108Z" fill="#010102"/>
<path d="M338 396C344.27 396 350.54 396 357 396C357 400.95 357 405.9 357 411C350.73 411 344.46 411 338 411C338 406.05 338 401.1 338 396Z" fill="#868A96"/>
<path d="M338 411C341.3 411 344.6 411 348 411C348 414.63 348 418.26 348 422C344.04 422 340.08 422 336 422C336 425.63 336 429.26 336 433C332.7 433 329.4 433 326 433C326 427.72 326 422.44 326 417C329.96 417 333.92 417 338 417C338 415.02 338 413.04 338 411Z" fill="#7B818D"/>
<path d="M276 120C279.96 120 283.92 120 288 120C288 126.93 288 133.86 288 141C284.04 141 280.08 141 276 141C276 137.7 276 134.4 276 131C263.13 131 250.26 131 237 131C237 130.67 237 130.34 237 130C249.87 130 262.74 130 276 130C276 126.7 276 123.4 276 120Z" fill="#E0E1E3"/>
<path d="M350 293C353.63 293 357.26 293 361 293C361 296.63 361 300.26 361 304C361.822 303.916 362.645 303.832 363.492 303.746C370.5 303.107 377.033 302.978 384 304C384.778 307.406 385.1 310.508 385 314C384.34 314 383.68 314 383 314C383 314.66 383 315.32 383 316C379.7 316 376.4 316 373 316C373 312.37 373 308.74 373 305C371.641 305.017 371.641 305.017 370.254 305.035C363.405 305.086 356.786 304.936 350 304C350 300.37 350 296.74 350 293Z" fill="#6C7380"/>
<path d="M186 304C193.26 304 200.52 304 208 304C208 307.96 208 311.92 208 316C200.74 316 193.48 316 186 316C186 312.04 186 308.08 186 304Z" fill="#656B77"/>
<path d="M350 305C352.64 305 355.28 305 358 305C358 315.23 358 325.46 358 336C355.03 336 352.06 336 349 336C349.33 325.77 349.66 315.54 350 305Z" fill="#020304"/>
<path d="M384 316C387.96 316 391.92 316 396 316C396.864 320.318 397.134 323.883 397.125 328.25C397.128 329.493 397.13 330.735 397.133 332.016C397 335 397 335 396 336C391.998 336.144 388.006 336.042 384 336C384 329.4 384 322.8 384 316Z" fill="#050507"/>
<path d="M169 221C176.59 221 184.18 221 192 221C192 224.3 192 227.6 192 231C195.96 231 199.92 231 204 231C204 231.33 204 231.66 204 232C179.939 232.199 179.939 232.199 169 231C169 227.7 169 224.4 169 221Z" fill="#737983"/>
<path d="M101 315C104.63 315 108.26 315 112 315C112 321.93 112 328.86 112 336C108.37 336 104.74 336 101 336C101 329.07 101 322.14 101 315Z" fill="#060607"/>
<path d="M361 201C364.63 201 368.26 201 372 201C372 207.93 372 214.86 372 222C368.37 222 364.74 222 361 222C361 215.07 361 208.14 361 201Z" fill="#B3B8BF"/>
<path d="M158 200C161.63 200 165.26 200 169 200C169 206.93 169 213.86 169 221C165.37 221 161.74 221 158 221C158 214.07 158 207.14 158 200Z" fill="#585E6B"/>
<path d="M146 201C149.63 201 153.26 201 157 201C157 207.6 157 214.2 157 221C153.37 221 149.74 221 146 221C146 214.4 146 207.8 146 201Z" fill="#010103"/>
<path d="M328 271C331.3 271 334.6 271 338 271C338 278.26 338 285.52 338 293C334.7 293 331.4 293 328 293C328 285.74 328 278.48 328 271Z" fill="#0C1016"/>
<path d="M303 396C306.3 396 309.6 396 313 396C313 402.93 313 409.86 313 417C309.7 417 306.4 417 303 417C303 410.07 303 403.14 303 396Z" fill="#6D7480"/>
<path d="M302 477C305.63 477 309.26 477 313 477C313 483.27 313 489.54 313 496C309.37 496 305.74 496 302 496C302 489.73 302 483.46 302 477Z" fill="#010102"/>
<path d="M313 377C316.63 377 320.26 377 324 377C324 382.94 324 388.88 324 395C320.37 395 316.74 395 313 395C313 389.06 313 383.12 313 377Z" fill="#6B727E"/>
<path d="M162 328C162.33 328 162.66 328 163 328C163 339.88 163 351.76 163 364C159.7 364 156.4 364 153 364C153 358.06 153 352.12 153 346C155.97 346 158.94 346 162 346C162 340.06 162 334.12 162 328Z" fill="#6E747F"/>
<path d="M68 447C71.3 447 74.6 447 78 447C78 450.63 78 454.26 78 458C75.03 458 72.06 458 69 458C69 461.3 69 464.6 69 468C70.2581 467.988 71.5163 467.977 72.8125 467.965C83.5924 467.897 94.2508 468.159 105 469C105 469.33 105 469.66 105 470C92.46 470 79.92 470 67 470C67.33 466.37 67.66 462.74 68 459C62.72 459 57.44 459 52 459C52 458.67 52 458.34 52 458C57.28 458 62.56 458 68 458C68 454.37 68 450.74 68 447Z" fill="#2B2E3A"/>
<path d="M91 337C94.3 337 97.6 337 101 337C101 342.94 101 348.88 101 355C97.7 355 94.4 355 91 355C91 349.06 91 343.12 91 337Z" fill="black"/>
<path d="M349 153C352.96 153 356.92 153 361 153C361 157.95 361 162.9 361 168C357.04 168 353.08 168 349 168C349 163.05 349 158.1 349 153Z" fill="#F7F7F7"/>
<path d="M262 153C265.96 153 269.92 153 274 153C274 157.95 274 162.9 274 168C270.04 168 266.08 168 262 168C262 163.05 262 158.1 262 153Z" fill="#F8F8F8"/>
<path d="M186 316C189.96 316 193.92 316 198 316C198 319.63 198 323.26 198 327C194.37 327 190.74 327 187 327C187 333.27 187 339.54 187 346C183.37 346 179.74 346 176 346C176 345.67 176 345.34 176 345C179.3 345 182.6 345 186 345C186 339.39 186 333.78 186 328C182.37 328 178.74 328 175 328C175 327.67 175 327.34 175 327C178.63 327 182.26 327 186 327C186 323.37 186 319.74 186 316Z" fill="#1B1E23"/>
<path d="M124 364C133.57 364 143.14 364 153 364C153 367.96 153 371.92 153 376C149.04 376 145.08 376 141 376C141 372.37 141 368.74 141 365C135.39 365 129.78 365 124 365C124 364.67 124 364.34 124 364Z" fill="#727782"/>
<path d="M205 45C205.33 45 205.66 45 206 45C206.027 47.1458 206.046 49.2916 206.062 51.4375C206.074 52.6325 206.086 53.8274 206.098 55.0586C206 58 206 58 205 59C200.998 59.1436 197.006 59.0422 193 59C192.67 55.04 192.34 51.08 192 47C196.29 47 200.58 47 205 47C205 46.34 205 45.68 205 45Z" fill="#020202"/>
<path d="M288 130C291.3 130 294.6 130 298 130C298 133.63 298 137.26 298 141C295.03 141 292.06 141 289 141C289 156.51 289 172.02 289 188C288.67 188 288.34 188 288 188C288 168.86 288 149.72 288 130Z" fill="#B9BBC0"/>
<path d="M90 336C93.63 336 97.26 336 101 336C101 336.33 101 336.66 101 337C97.7 337 94.4 337 91 337C91 342.94 91 348.88 91 355C94.3 355 97.6 355 101 355C101.33 353.68 101.66 352.36 102 351C102 352.65 102 354.3 102 356C98.37 356 94.74 356 91 356C91 366.23 91 376.46 91 387C90.67 387 90.34 387 90 387C90 376.77 90 366.54 90 356C86.7 356 83.4 356 80 356C80 365.57 80 375.14 80 385C70.76 385 61.52 385 52 385C52 384.67 52 384.34 52 384C60.91 384 69.82 384 79 384C79 374.43 79 364.86 79 355C82.63 355 86.26 355 90 355C90 348.73 90 342.46 90 336Z" fill="#1B1B1E"/>
<path d="M337 109C348.88 109 360.76 109 373 109C373 114.94 373 120.88 373 127C372.67 127 372.34 127 372 127C372 124.36 372 121.72 372 119C368.7 119 365.4 119 362 119C362 116.03 362 113.06 362 110C353.75 110 345.5 110 337 110C337 109.67 337 109.34 337 109Z" fill="#BCC1C9"/>
<path d="M206 420C209.63 420 213.26 420 217 420C217 424.62 217 429.24 217 434C216.67 433.34 216.34 432.68 216 432C212.7 432 209.4 432 206 432C206 428.04 206 424.08 206 420Z" fill="#7F8590"/>
<path d="M376.285 303.902C377.66 303.92 377.66 303.92 379.062 303.938C379.982 303.947 380.901 303.956 381.848 303.965C382.558 303.976 383.268 303.988 384 304C384.778 307.406 385.1 310.508 385 314C384.34 314 383.68 314 383 314C383 314.66 383 315.32 383 316C379.7 316 376.4 316 373 316C372.973 314.188 372.954 312.375 372.938 310.562C372.926 309.553 372.914 308.544 372.902 307.504C373.029 304.268 373.062 304.04 376.285 303.902Z" fill="#08090A"/>
<path d="M62.25 447.438C63.142 447.54 64.0341 447.642 64.9531 447.747C65.6286 447.83 66.3041 447.914 67 448.001C67 450.971 67 453.941 67 457.001C62.38 457.001 57.76 457.001 53 457.001C53 454.031 53 451.061 53 448.001C56.6773 447.081 58.599 447.006 62.25 447.438Z" fill="#000002"/>
<path d="M202 82C206.95 82.33 211.9 82.66 217 83C217 85.64 217 88.28 217 91C211.856 92.7146 207.162 92.2906 202 91C202 88.03 202 85.06 202 82Z" fill="#868A97"/>
<path d="M277 130C280.63 130 284.26 130 288 130C288 133.63 288 137.26 288 141C284.04 141 280.08 141 276 141C276.33 137.37 276.66 133.74 277 130Z" fill="#FDFDFD"/>
<path d="M175 316C178.63 316 182.26 316 186 316C186 319.63 186 323.26 186 327C182.37 327 178.74 327 175 327C175 323.37 175 319.74 175 316Z" fill="#717782"/>
<path d="M338 282C341.63 282 345.26 282 349 282C349 285.63 349 289.26 349 293C345.37 293 341.74 293 338 293C338 289.37 338 285.74 338 282Z" fill="#6D727E"/>
<path d="M348 411C350.97 411 353.94 411 357 411C357 414.96 357 418.92 357 423C350.07 423 343.14 423 336 423C336 422.67 336 422.34 336 422C339.96 422 343.92 422 348 422C348 418.37 348 414.74 348 411Z" fill="#434853"/>
<path d="M36 407C37.32 407 38.64 407 40 407C40 416.9 40 426.8 40 437C38.68 437 37.36 437 36 437C36 427.1 36 417.2 36 407Z" fill="#000101"/>
<path d="M198 304C201.3 304 204.6 304 208 304C208 307.96 208 311.92 208 316C204.7 316 201.4 316 198 316C198 312.04 198 308.08 198 304Z" fill="#23262E"/>
<path d="M216 242C219.96 242 223.92 242 228 242C228 245.3 228 248.6 228 252C224.04 252 220.08 252 216 252C216 248.7 216 245.4 216 242Z" fill="#323840"/>
<path d="M169 221C172.96 221 176.92 221 181 221C181 224.3 181 227.6 181 231C177.04 231 173.08 231 169 231C169 227.7 169 224.4 169 221Z" fill="#555B67"/>
<path d="M158 121.999C165.715 121.901 165.715 121.901 168 121.999C169 122.999 169 122.999 169.098 125.284C169.049 129.142 169.049 129.142 169 132.999C165.37 132.999 161.74 132.999 158 132.999C158 129.369 158 125.739 158 121.999Z" fill="#818691"/>
<path d="M337 71C340.96 71 344.92 71 349 71C349 74.3 349 77.6 349 81C345.04 81 341.08 81 337 81C337 77.7 337 74.4 337 71Z" fill="#000102"/>
<path d="M192 222C195.96 222 199.92 222 204 222C205.607 225.215 205.057 228.436 205 232C200.71 231.67 196.42 231.34 192 231C192 228.03 192 225.06 192 222Z" fill="#868A94"/>
<path d="M156 260C159.96 260.33 163.92 260.66 168 261C168 264.3 168 267.6 168 271C164.37 271 160.74 271 157 271C156.67 267.37 156.34 263.74 156 260Z" fill="#030303"/>
<path d="M158 502C161.63 502 165.26 502 169 502C169 505.3 169 508.6 169 512C165.37 512 161.74 512 158 512C158 508.7 158 505.4 158 502Z" fill="#010102"/>
<path d="M326 422C329.3 422 332.6 422 336 422C336 425.63 336 429.26 336 433C332.7 433 329.4 433 326 433C326 429.37 326 425.74 326 422Z" fill="#717885"/>
<path d="M41 396C44.63 396 48.26 396 52 396C52 399.3 52 402.6 52 406C48.37 406 44.74 406 41 406C41 402.7 41 399.4 41 396Z" fill="#020203"/>
<path d="M339 293C342.3 293 345.6 293 349 293C349 296.63 349 300.26 349 304C345.7 304 342.4 304 339 304C339 300.37 339 296.74 339 293Z" fill="#171A24"/>
<path d="M146 272C149.63 272 153.26 272 157 272C157 275.3 157 278.6 157 282C153.37 282 149.74 282 146 282C146 278.7 146 275.4 146 272Z" fill="#020303"/>
<path d="M158 221C161.63 221 165.26 221 169 221C169 224.3 169 227.6 169 231C165.37 231 161.74 231 158 231C158 227.7 158 224.4 158 221Z" fill="#020203"/>
<path d="M181 200C184.63 200 188.26 200 192 200C192 203.3 192 206.6 192 210C188.37 210 184.74 210 181 210C181 206.7 181 203.4 181 200Z" fill="#AEB4BB"/>
<path d="M192 200C195.63 200 199.26 200 203 200C203 203.3 203 206.6 203 210C199.37 210 195.74 210 192 210C192 206.7 192 203.4 192 200Z" fill="#FAFAF9"/>
<path d="M350 82C353.63 82 357.26 82 361 82C361 85.3 361 88.6 361 92C357.37 92 353.74 92 350 92C350 88.7 350 85.4 350 82Z" fill="#000001"/>
<path d="M328 293C331.3 293 334.6 293 338 293C338 296.96 338 300.92 338 305C335.03 305 332.06 305 329 305C328.67 301.04 328.34 297.08 328 293Z" fill="#8A8F9B"/>
<path d="M146 133C149.96 133 153.92 133 158 133C158 135.97 158 138.94 158 142C154.04 142 150.08 142 146 142C146 139.03 146 136.06 146 133Z" fill="#7D828F"/>
<path d="M162.164 189.805C164.443 189.87 166.721 189.935 169 190C169 193.3 169 196.6 169 200C165.37 200 161.74 200 158 200C157.805 193.945 157.805 193.945 158 192C160 190 160 190 162.164 189.805Z" fill="#8A8F9B"/>
<path d="M342 264C342.33 264 342.66 264 343 264C343 266.31 343 268.62 343 271C347.95 271 352.9 271 358 271C358 274.3 358 277.6 358 281C359.32 281.33 360.64 281.66 362 282C362 285.3 362 288.6 362 292C365.96 292 369.92 292 374 292C374 295.63 374 299.26 374 303C373.01 303.495 373.01 303.495 372 304C372 300.37 372 296.74 372 293C368.7 293 365.4 293 362 293C362 296.63 362 300.26 362 304C361.67 304 361.34 304 361 304C361 297.07 361 290.14 361 283C359.35 282.67 357.7 282.34 356 282C356 278.7 356 275.4 356 272C351.38 272 346.76 272 342 272C342 269.36 342 266.72 342 264Z" fill="#252628"/>
<path d="M315 253C318.3 253.33 321.6 253.66 325 254C325 257.3 325 260.6 325 264C321.7 264 318.4 264 315 264C315 260.37 315 256.74 315 253Z" fill="#11151C"/>
<path d="M325 120C328.63 120 332.26 120 336 120C335.67 123.3 335.34 126.6 335 130C331.7 130 328.4 130 325 130C325 126.7 325 123.4 325 120Z" fill="#C3C6CC"/>
<path d="M291 466C294.3 466 297.6 466 301 466C301 469.3 301 472.6 301 476C297.7 476 294.4 476 291 476C291 472.7 291 469.4 291 466Z" fill="#000101"/>
<path d="M113 305C116.3 305 119.6 305 123 305C123 308.3 123 311.6 123 315C119.7 315 116.4 315 113 315C113 311.7 113 308.4 113 305Z" fill="#000101"/>
<path d="M124 294C127.3 294 130.6 294 134 294C134 297.3 134 300.6 134 304C130.7 304 127.4 304 124 304C124 300.7 124 297.4 124 294Z" fill="black"/>
<path d="M228 242C231.3 242 234.6 242 238 242C238 245.3 238 248.6 238 252C234.7 252 231.4 252 228 252C228 248.7 228 245.4 228 242Z" fill="#5E646F"/>
<path d="M351 222C354.3 222 357.6 222 361 222C361 225.3 361 228.6 361 232C357.7 232 354.4 232 351 232C351 228.7 351 225.4 351 222Z" fill="#B3B8BF"/>
<path d="M251 417C254.96 417 258.92 417 263 417C263 420.3 263 423.6 263 427C262.67 426.34 262.34 425.68 262 425C258.37 425 254.74 425 251 425C251 422.36 251 419.72 251 417Z" fill="#8B909B"/>
<path d="M364.284 212.902C365.659 212.92 365.659 212.92 367.062 212.938C367.981 212.947 368.9 212.956 369.847 212.965C370.557 212.976 371.267 212.988 371.999 213C371.999 215.97 371.999 218.94 371.999 222C368.369 222 364.739 222 360.999 222C360.901 215.848 360.901 215.848 360.999 214C361.999 213 361.999 213 364.284 212.902Z" fill="#A2A7B0"/>
<path d="M134 282C134.33 282 134.66 282 135 282C135 289.59 135 297.18 135 305C131.37 305 127.74 305 124 305C124 308.3 124 311.6 124 315C123.67 315 123.34 315 123 315C123 311.7 123 308.4 123 305C119.7 305 116.4 305 113 305C113 308.3 113 311.6 113 315C112.67 315 112.34 315 112 315C112 311.37 112 307.74 112 304C115.63 304 119.26 304 123 304C122.67 300.04 122.34 296.08 122 292C125.63 292 129.26 292 133 292C133.33 288.7 133.66 285.4 134 282ZM124 294C124 297.3 124 300.6 124 304C127.3 304 130.6 304 134 304C134 300.7 134 297.4 134 294C130.7 294 127.4 294 124 294Z" fill="#323234"/>
<path d="M51 386C51.33 386 51.66 386 52 386C52 389.3 52 392.6 52 396C48.37 396 44.74 396 41 396C41 399.3 41 402.6 41 406C44.63 406 48.26 406 52 406C52 406.33 52 406.66 52 407C48.37 407 44.74 407 41 407C41 420.53 41 434.06 41 448C40.67 448 40.34 448 40 448C40 444.7 40 441.4 40 438C38.68 437.67 37.36 437.34 36 437C37.32 437 38.64 437 40 437C40 427.1 40 417.2 40 407C38.68 407 37.36 407 36 407C36 406.34 36 405.68 36 405C36.99 405 37.98 405 39 405C39.33 401.7 39.66 398.4 40 395C43.63 395 47.26 395 51 395C51 392.03 51 389.06 51 386Z" fill="#1B1B1F"/>
<path d="M170 190C172.97 190 175.94 190 179 190C179 193.3 179 196.6 179 200C175.7 200 172.4 200 169 200C169.33 196.7 169.66 193.4 170 190Z" fill="#9A9FAA"/>
<path d="M266 222C269.3 222 272.6 222 276 222C276 224.97 276 227.94 276 231C272.7 231 269.4 231 266 231C266 228.03 266 225.06 266 222Z" fill="#AFB3BA"/>
<path d="M229 61C231.97 61 234.94 61 238 61C238 64.3 238 67.6 238 71C235.03 71 232.06 71 229 71C229 67.7 229 64.4 229 61Z" fill="#828692"/>
<path d="M182 142.999C188.934 142.901 188.934 142.901 191 142.999C192 143.999 192 143.999 192.098 145.847C192.049 148.923 192.049 148.923 192 151.999C188.7 151.999 185.4 151.999 182 151.999C182 149.029 182 146.059 182 142.999Z" fill="#A2A7AF"/>
<path d="M205 232C208.63 232 212.26 232 216 232C216 234.64 216 237.28 216 240C212.37 240 208.74 240 205 240C205 237.36 205 234.72 205 232Z" fill="#868A95"/>
<path d="M267 231C269.97 231 272.94 231 276 231C276 233.97 276 236.94 276 240C273.03 240 270.06 240 267 240C267 237.03 267 234.06 267 231Z" fill="#80858E"/>
<path d="M302 61C304.64 61 307.28 61 310 61C310 64.3 310 67.6 310 71C307.36 71 304.72 71 302 71C302 67.7 302 64.4 302 61Z" fill="#848792"/>
<path d="M338 293C338.33 293 338.66 293 339 293C339 296.63 339 300.26 339 304C342.3 304 345.6 304 349 304C349 300.37 349 296.74 349 293C349.33 293 349.66 293 350 293C350 296.63 350 300.26 350 304C352.64 304 355.28 304 358 304C358 304.33 358 304.66 358 305C355.36 305 352.72 305 350 305C350 311.93 350 318.86 350 326C349.67 326 349.34 326 349 326C349 319.07 349 312.14 349 305C345.37 305 341.74 305 338 305C338 301.04 338 297.08 338 293Z" fill="#272B32"/>
<path d="M326 417C329.96 417 333.92 417 338 417C338 418.65 338 420.3 338 422C334.04 422 330.08 422 326 422C326 420.35 326 418.7 326 417Z" fill="#8E929D"/>
<path d="M302 417C305.96 417 309.92 417 314 417C314 417.33 314 417.66 314 418C310.37 418 306.74 418 303 418C303 420.97 303 423.94 303 427C307.29 427 311.58 427 316 427C316 428.98 316 430.96 316 433C315.01 433 314.02 433 313 433C313 431.35 313 429.7 313 428C309.37 428 305.74 428 302 428C302 424.37 302 420.74 302 417Z" fill="#9096A0"/>
<path d="M123 301C123.33 301.99 123.66 302.98 124 304C127.63 304 131.26 304 135 304C135 304.33 135 304.66 135 305C131.37 305 127.74 305 124 305C124 308.3 124 311.6 124 315C123.67 315 123.34 315 123 315C123 311.7 123 308.4 123 305C119.7 305 116.4 305 113 305C113 308.3 113 311.6 113 315C112.67 315 112.34 315 112 315C112 311.37 112 307.74 112 304C115.63 304 119.26 304 123 304C123 303.01 123 302.02 123 301Z" fill="#3E4044"/>
<path d="M201 82C201.33 82 201.66 82 202 82C202 83.98 202 85.96 202 88C198.7 88 195.4 88 192 88C192.33 86.35 192.66 84.7 193 83C194.134 83.0206 195.269 83.0412 196.438 83.0625C199.816 83.4158 199.816 83.4158 201 82Z" fill="#E2E5E9"/>
<path d="M343 83C344.65 83 346.3 83 348 83C348 85.97 348 88.94 348 92C346.35 92 344.7 92 343 92C343 89.03 343 86.06 343 83Z" fill="#878C99"/>
<path d="M367 109C368.98 109 370.96 109 373 109C373 114.94 373 120.88 373 127C372.67 127 372.34 127 372 127C371.67 121.72 371.34 116.44 371 111C369.35 111 367.7 111 366 111C366.33 110.34 366.66 109.68 367 109Z" fill="#A7AAB1"/>
<path d="M192 88C194.97 88 197.94 88 201 88C201 89.32 201 90.64 201 92C198.03 92 195.06 92 192 92C192 90.68 192 89.36 192 88Z" fill="#B9BDC4"/>
<path d="M68 442C69.32 442.33 70.64 442.66 72 443C71.67 443.99 71.34 444.98 71 446C73.64 446 76.28 446 79 446C79 446.33 79 446.66 79 447C75.37 447 71.74 447 68 447C68 445.35 68 443.7 68 442Z" fill="#90939E"/>
<path d="M392 470C395.96 470.33 399.92 470.66 404 471C404 471.33 404 471.66 404 472C400.37 472 396.74 472 393 472C393 472.66 393 473.32 393 474C392.34 474 391.68 474 391 474C391.33 472.68 391.66 471.36 392 470Z" fill="#2B2D33"/>
</svg>
